<svg width="34" height="35" viewBox="0 0 34 35" fill="none" xmlns="http://www.w3.org/2000/svg">
<g clip-path="url(#clip0_4532_4109)">
<path d="M17.0047 13.5474H17C14.8171 13.5474 13.0475 15.317 13.0475 17.4999V17.5046C13.0475 19.6875 14.8171 21.4571 17 21.4571H17.0047C19.1876 21.4571 20.9572 19.6875 20.9572 17.5046V17.4999C20.9572 15.317 19.1876 13.5474 17.0047 13.5474Z" fill="#00FFB6"/>
<path d="M9.24611 13.8403C9.24611 11.4933 11.1492 9.59028 13.4961 9.59028H21.7033L30.7936 0.5H8.13167L0 8.63167V22.0097H9.24611V13.8356V13.8403Z" fill="black"/>
<path d="M24.7539 12.957V20.8479C24.7539 23.1948 22.8509 25.0979 20.5039 25.0979H12.6131L3.20642 34.5045H25.8684L34 26.3729V12.9618H24.7539V12.957Z" fill="black"/>
</g>
<defs>
<clipPath id="clip0_4532_4109">
<rect width="34" height="34" fill="white" transform="translate(0 0.5)"/>
</clipPath>
</defs>
</svg>
