<svg width="313" height="138" viewBox="0 0 313 138" fill="none" xmlns="http://www.w3.org/2000/svg">
<path d="M145.696 38.2872C145.565 38.418 145.409 38.4858 145.227 38.4906C145.05 38.5001 144.879 38.4466 144.716 38.33C143.835 37.6634 143.051 37.1087 142.365 36.6659C141.68 36.2231 141.055 35.8923 140.49 35.6734C139.921 35.4499 139.373 35.3407 138.845 35.3458C138.318 35.3416 137.774 35.4517 137.214 35.6762C136.654 35.9007 136.039 36.2349 135.372 36.6789C134.699 37.1181 133.931 37.6672 133.067 38.326C132.908 38.4568 132.736 38.5223 132.549 38.5224C132.362 38.5132 132.201 38.441 132.066 38.3058C131.931 38.1706 131.861 38.012 131.856 37.8299C131.852 37.6386 131.913 37.4612 132.039 37.2977C132.852 36.289 133.501 35.4063 133.987 34.6499C134.473 33.884 134.796 33.179 134.955 32.5348C135.119 31.886 135.122 31.2349 134.964 30.5817C134.801 29.9237 134.475 29.2006 133.986 28.4123C133.496 27.624 132.846 26.7028 132.035 25.6487C131.918 25.4855 131.865 25.3152 131.874 25.1378C131.884 24.9605 131.954 24.8064 132.085 24.6756C132.215 24.5448 132.37 24.4747 132.547 24.4652C132.724 24.4557 132.895 24.5092 133.058 24.6258C134.112 25.4369 135.033 26.0872 135.821 26.5766C136.61 27.066 137.33 27.3944 137.984 27.5618C138.637 27.72 139.286 27.7194 139.93 27.5602C140.579 27.3963 141.286 27.0713 142.052 26.5853C142.813 26.0946 143.698 25.4428 144.707 24.6299C144.866 24.5084 145.041 24.4499 145.232 24.4544C145.419 24.4542 145.58 24.5218 145.715 24.657C145.85 24.7922 145.92 24.9555 145.924 25.1469C145.924 25.3336 145.861 25.504 145.735 25.6581C144.927 26.6715 144.28 27.5611 143.794 28.327C143.303 29.0881 142.976 29.7931 142.812 30.442C142.652 31.0862 142.654 31.7372 142.817 32.3951C142.98 33.0437 143.306 33.7622 143.795 34.5505C144.28 35.3342 144.928 36.253 145.739 37.3071C145.856 37.4703 145.909 37.6406 145.9 37.818C145.895 38 145.827 38.1564 145.696 38.2872Z" fill="#FFFBEB"/>
<path d="M163.324 55.9151C163.194 56.0459 163.037 56.1137 162.855 56.1186C162.678 56.128 162.508 56.0745 162.344 55.958C161.463 55.2913 160.679 54.7366 159.994 54.2938C159.308 53.851 158.683 53.5202 158.118 53.3013C157.549 53.0778 157.001 52.9686 156.473 52.9737C155.946 52.9695 155.402 53.0796 154.842 53.3041C154.282 53.5286 153.668 53.8628 153 54.3068C152.327 54.7461 151.559 55.2951 150.695 55.9539C150.537 56.0847 150.364 56.1502 150.177 56.1503C149.99 56.1412 149.829 56.069 149.694 55.9337C149.559 55.7985 149.489 55.6399 149.485 55.4579C149.48 55.2665 149.541 55.0891 149.667 54.9257C150.48 53.9169 151.129 53.0343 151.616 52.2778C152.102 51.512 152.424 50.807 152.583 50.1628C152.747 49.5139 152.75 48.8629 152.592 48.2096C152.429 47.5517 152.103 46.8286 151.614 46.0402C151.124 45.2519 150.474 44.3307 149.663 43.2767C149.546 43.1134 149.493 42.9431 149.502 42.7658C149.512 42.5884 149.582 42.4343 149.713 42.3035C149.844 42.1727 149.998 42.1026 150.175 42.0931C150.352 42.0836 150.523 42.1372 150.686 42.2537C151.74 43.0649 152.661 43.7151 153.45 44.2045C154.238 44.6939 154.959 45.0223 155.612 45.1898C156.265 45.3479 156.914 45.3473 157.558 45.1881C158.207 45.0242 158.914 44.6992 159.68 44.2132C160.441 43.7225 161.326 43.0707 162.335 42.2578C162.494 42.1363 162.669 42.0778 162.86 42.0823C163.047 42.0822 163.208 42.1497 163.343 42.2849C163.478 42.4202 163.548 42.5835 163.553 42.7748C163.552 42.9615 163.489 43.1319 163.363 43.286C162.555 44.2995 161.908 45.1891 161.422 45.9549C160.931 46.716 160.604 47.421 160.44 48.0699C160.281 48.7141 160.282 49.3652 160.445 50.0231C160.608 50.6717 160.934 51.3901 161.423 52.1784C161.908 52.9621 162.556 53.8809 163.367 54.935C163.484 55.0983 163.537 55.2686 163.528 55.4459C163.523 55.6279 163.455 55.7843 163.324 55.9151Z" fill="#FFFBEB"/>
<path d="M163.288 20.6954C163.157 20.8262 163 20.894 162.818 20.8988C162.641 20.9083 162.471 20.8548 162.307 20.7383C161.426 20.0716 160.642 19.5169 159.957 19.0741C159.271 18.6313 158.646 18.3005 158.081 18.0816C157.512 17.8581 156.964 17.7489 156.436 17.754C155.909 17.7498 155.365 17.8599 154.805 18.0844C154.245 18.3089 153.631 18.6431 152.963 19.0871C152.291 19.5263 151.522 20.0754 150.658 20.7342C150.5 20.865 150.327 20.9305 150.14 20.9306C149.954 20.9214 149.793 20.8492 149.657 20.714C149.522 20.5788 149.452 20.4202 149.448 20.2381C149.443 20.0468 149.504 19.8694 149.63 19.7059C150.443 18.6972 151.093 17.8145 151.579 17.0581C152.065 16.2922 152.387 15.5872 152.547 14.943C152.71 14.2942 152.713 13.6431 152.555 12.9899C152.392 12.332 152.066 11.6088 151.577 10.8205C151.088 10.0322 150.437 9.111 149.626 8.05693C149.51 7.89368 149.456 7.72338 149.466 7.54603C149.475 7.36867 149.545 7.2146 149.676 7.08381C149.807 6.95302 149.961 6.88288 150.138 6.87339C150.316 6.86391 150.486 6.91744 150.649 7.03397C151.703 7.84515 152.624 8.49542 153.413 8.98479C154.201 9.47417 154.922 9.80258 155.575 9.97004C156.228 10.1282 156.877 10.1276 157.521 9.96838C158.17 9.80449 158.877 9.47952 159.643 8.99349C160.404 8.50281 161.289 7.851 162.298 7.03807C162.457 6.91659 162.632 6.8581 162.823 6.8626C163.01 6.86245 163.171 6.92998 163.306 7.06521C163.441 7.20044 163.511 7.36373 163.516 7.55508C163.516 7.74176 163.452 7.91216 163.326 8.06628C162.518 9.07973 161.871 9.96935 161.385 10.7352C160.894 11.4963 160.567 12.2013 160.403 12.8502C160.244 13.4944 160.246 14.1454 160.408 14.8033C160.571 15.4519 160.897 16.1704 161.387 16.9587C161.871 17.7424 162.519 18.6612 163.33 19.7153C163.447 19.8785 163.5 20.0488 163.491 20.2262C163.486 20.4082 163.418 20.5646 163.288 20.6954Z" fill="#FFFBEB"/>
<path d="M180.915 38.3243C180.784 38.4551 180.628 38.5229 180.446 38.5277C180.269 38.5372 180.098 38.4837 179.935 38.3672C179.054 37.7005 178.27 37.1458 177.584 36.703C176.899 36.2602 176.274 35.9294 175.709 35.7105C175.14 35.487 174.592 35.3778 174.064 35.3829C173.537 35.3787 172.993 35.4888 172.433 35.7133C171.872 35.9378 171.258 36.272 170.591 36.716C169.918 37.1552 169.15 37.7043 168.286 38.3631C168.127 38.4939 167.955 38.5594 167.768 38.5595C167.581 38.5503 167.42 38.4781 167.285 38.3429C167.15 38.2077 167.08 38.0491 167.075 37.867C167.071 37.6757 167.132 37.4983 167.258 37.3348C168.071 36.3261 168.72 35.4434 169.206 34.687C169.692 33.9211 170.015 33.2161 170.174 32.572C170.338 31.9231 170.341 31.272 170.183 30.6188C170.02 29.9609 169.694 29.2377 169.205 28.4494C168.715 27.6611 168.065 26.7399 167.254 25.6858C167.137 25.5226 167.084 25.3523 167.093 25.1749C167.103 24.9976 167.173 24.8435 167.304 24.7127C167.434 24.5819 167.589 24.5118 167.766 24.5023C167.943 24.4928 168.114 24.5463 168.277 24.6629C169.331 25.4741 170.252 26.1243 171.04 26.6137C171.829 27.1031 172.549 27.4315 173.203 27.5989C173.856 27.7571 174.505 27.7565 175.149 27.5973C175.798 27.4334 176.505 27.1084 177.271 26.6224C178.032 26.1317 178.917 25.4799 179.926 24.667C180.085 24.5455 180.26 24.487 180.451 24.4915C180.638 24.4914 180.799 24.5589 180.934 24.6941C181.069 24.8293 181.139 24.9926 181.143 25.184C181.143 25.3707 181.08 25.5411 180.954 25.6952C180.146 26.7086 179.499 27.5983 179.013 28.3641C178.522 29.1252 178.195 29.8302 178.031 30.4791C177.871 31.1233 177.873 31.7743 178.036 32.4323C178.199 33.0808 178.525 33.7993 179.014 34.5876C179.499 35.3713 180.147 36.2901 180.958 37.3442C181.075 37.5074 181.128 37.6777 181.119 37.8551C181.114 38.0371 181.046 38.1935 180.915 38.3243Z" fill="#FFFBEB"/>
<path d="M156.595 41.2566C156.41 41.2566 156.251 41.1939 156.119 41.0686C155.987 40.9499 155.905 40.7916 155.872 40.5938C155.72 39.4991 155.558 38.5528 155.386 37.7548C155.214 36.9569 155.006 36.2809 154.762 35.727C154.517 35.1664 154.207 34.7015 153.83 34.3322C153.461 33.9563 152.998 33.6497 152.443 33.4122C151.888 33.1748 151.218 32.977 150.432 32.8187C149.646 32.6539 148.714 32.4989 147.637 32.3538C147.433 32.334 147.264 32.2582 147.132 32.1263C147.007 31.9878 146.944 31.8229 146.944 31.6317C146.944 31.4405 147.007 31.2789 147.132 31.147C147.264 31.0085 147.433 30.9261 147.637 30.8997C148.926 30.7612 150.009 30.5963 150.888 30.4051C151.773 30.2073 152.499 29.9369 153.067 29.594C153.642 29.251 154.105 28.7927 154.455 28.219C154.805 27.6386 155.086 26.8968 155.297 25.9933C155.508 25.0898 155.7 23.9786 155.872 22.6597C155.905 22.4619 155.987 22.3036 156.119 22.1849C156.251 22.0662 156.41 22.0068 156.595 22.0068C156.78 22.0068 156.939 22.0662 157.071 22.1849C157.203 22.3036 157.285 22.4619 157.318 22.6597C157.49 23.9786 157.682 25.0898 157.893 25.9933C158.104 26.8968 158.382 27.6386 158.725 28.219C159.075 28.7927 159.535 29.251 160.103 29.594C160.677 29.9369 161.407 30.2073 162.293 30.4051C163.178 30.5963 164.264 30.7612 165.553 30.8997C165.751 30.9261 165.916 31.0085 166.048 31.147C166.18 31.2789 166.246 31.4405 166.246 31.6317C166.246 31.8229 166.18 31.9878 166.048 32.1263C165.916 32.2582 165.751 32.334 165.553 32.3538C164.264 32.4989 163.178 32.6703 162.293 32.8682C161.407 33.0594 160.677 33.3265 160.103 33.6694C159.535 34.0124 159.075 34.474 158.725 35.0543C158.382 35.628 158.104 36.3666 157.893 37.2701C157.682 38.167 157.49 39.2749 157.318 40.5938C157.285 40.7916 157.203 40.9499 157.071 41.0686C156.939 41.1939 156.78 41.2566 156.595 41.2566Z" fill="#FFFBEB"/>
<rect x="137.979" y="30.5322" width="24.8774" height="2.94531" transform="rotate(-45 137.979 30.5322)" fill="#FFFBEB"/>
<rect x="155.607" y="48.1611" width="24.8774" height="2.94531" transform="rotate(-45 155.607 48.1611)" fill="#FFFBEB"/>
<path d="M104.536 94.6362C103.864 89.0682 100.84 85.8522 96.28 85.8522C92.92 85.8522 90.952 87.9162 90.952 91.2282C90.952 100.444 108.184 100.924 108.184 114.796C108.184 121.9 103.624 126.508 96.328 126.508C90.136 126.508 86.44 124.3 86.44 122.236C86.44 121.468 86.632 119.74 86.632 118.012C86.632 116.044 86.44 114.124 86.44 113.74C86.44 112.924 87.016 112.684 87.448 112.684C87.88 112.684 88.264 112.876 88.456 113.644C90.376 121.228 93.112 124.348 97.864 124.348C101.464 124.348 103.576 121.996 103.576 117.964C103.576 106.06 86.44 106.588 86.44 94.3962C86.44 87.9162 90.616 83.6922 97.48 83.6922C101.08 83.6922 106.504 84.9402 106.504 87.1962C106.504 87.8682 106.408 89.5962 106.408 91.3242L106.504 95.0682C106.504 95.8362 106.072 96.0762 105.64 96.0762C105.16 96.0762 104.68 95.8842 104.536 94.6362ZM123.719 105.724C126.791 105.724 128.615 104.188 128.615 101.548C128.615 98.4282 126.743 96.4122 124.055 96.4122C120.551 96.4122 118.343 99.4362 117.623 105.244C117.575 105.58 117.719 105.724 118.007 105.724H123.719ZM111.095 110.764C111.095 100.636 116.039 94.0122 123.623 94.0122C129.479 94.0122 133.319 98.3322 133.319 105.676C133.319 107.5 132.839 108.124 131.735 108.124H117.815C117.527 108.124 117.383 108.268 117.383 108.46L117.335 110.332C117.335 118.252 120.407 123.388 125.639 123.388C128.135 123.388 129.815 122.476 131.735 120.748C132.119 120.412 132.551 120.364 132.887 120.604C133.223 120.844 133.271 121.276 133.079 121.66C131.639 124.588 128.087 126.46 124.055 126.46C116.183 126.46 111.095 120.268 111.095 110.764ZM143.866 120.892C143.866 123.388 145.354 123.916 146.41 124.156C147.034 124.3 147.178 124.588 147.178 124.972C147.178 125.308 146.986 125.74 146.362 125.74C145.834 125.74 143.482 125.452 140.938 125.452C138.49 125.452 136.138 125.74 135.61 125.74C134.986 125.74 134.794 125.308 134.794 124.972C134.794 124.588 134.938 124.3 135.562 124.156C136.618 123.916 138.106 123.388 138.106 120.892V85.5162C138.106 84.1722 137.578 83.7882 136.522 83.5002C135.994 83.3562 135.85 83.0682 135.85 82.6842C135.85 82.3482 135.946 82.0122 136.57 81.9162C138.442 81.6282 141.418 80.8122 142.714 79.5162C143.002 79.2282 143.098 79.1802 143.338 79.1802C143.722 79.1802 143.866 79.3242 143.866 79.6602V120.892ZM163.998 94.7802C164.766 94.7802 165.294 95.2122 165.294 95.9322C165.294 96.7482 164.958 97.1802 163.998 97.1802H159.006C158.286 97.1802 157.95 97.4682 157.95 98.0442V120.892C157.95 123.388 159.438 123.916 160.494 124.156C161.118 124.3 161.262 124.588 161.262 124.972C161.262 125.308 161.07 125.74 160.446 125.74C159.918 125.74 157.566 125.452 155.07 125.452C152.574 125.452 150.222 125.74 149.694 125.74C149.07 125.74 148.878 125.308 148.878 124.972C148.878 124.588 149.021 124.3 149.646 124.156C150.702 123.916 152.19 123.388 152.19 120.892V98.0922C152.19 97.4682 151.902 97.2282 151.326 97.2282L149.982 97.2762C149.502 97.2762 149.118 96.9402 149.118 96.3642C149.118 95.9322 149.262 95.6442 149.79 95.4522L151.422 94.8282C151.95 94.5882 152.19 94.2522 152.19 93.8202V92.0922C152.19 84.6522 156.558 79.2282 162.606 79.2282C166.686 79.2282 169.326 81.8202 169.326 84.7482C169.326 86.1882 168.51 87.1002 167.31 87.1002C166.206 87.1002 165.39 86.6682 164.862 85.2762C163.998 82.9242 163.326 81.3882 161.694 81.3882C159.63 81.3882 157.95 84.1242 157.95 92.3802V93.9162C157.95 94.5402 158.334 94.7802 159.054 94.7802H163.998ZM182.783 89.3082C182.783 86.8122 181.343 86.4282 179.759 86.0442C179.135 85.9002 178.991 85.6122 178.991 85.2282C178.991 84.8922 179.183 84.4602 179.807 84.4602C180.335 84.4602 183.167 84.7482 185.903 84.7482C188.639 84.7482 191.471 84.4602 191.999 84.4602C192.623 84.4602 192.815 84.8922 192.815 85.2282C192.815 85.6122 192.671 85.9002 192.047 86.0442C190.511 86.4282 189.023 86.8122 189.023 89.3082V120.892C189.023 123.388 190.703 123.868 192.047 124.156C192.671 124.3 192.815 124.588 192.815 124.972C192.815 125.308 192.623 125.74 191.999 125.74C191.471 125.74 188.639 125.452 185.903 125.452C183.167 125.452 180.335 125.74 179.807 125.74C179.183 125.74 178.991 125.308 178.991 124.972C178.991 124.588 179.135 124.3 179.759 124.156C181.055 123.868 182.783 123.388 182.783 120.892V89.3082ZM208.544 123.82C216.224 123.82 220.256 117.436 220.256 105.148C220.256 92.8122 216.224 86.3802 208.544 86.3802C205.904 86.3802 204.368 87.0042 204.368 89.7882V120.7C204.368 123.436 206.144 123.82 208.544 123.82ZM195.248 125.74C194.48 125.74 194.288 125.308 194.288 124.972C194.288 124.588 194.432 124.252 195.2 124.108C196.448 123.868 198.128 123.388 198.128 121.852V88.3482C198.128 86.8122 196.448 86.3322 195.2 86.0922C194.432 85.9482 194.288 85.6122 194.288 85.2282C194.288 84.8922 194.48 84.4602 195.248 84.4602C195.92 84.4602 198.32 84.6522 201.728 84.6522C205.04 84.6522 208.304 84.4602 210.608 84.4602C220.928 84.4602 226.976 92.0922 226.976 105.148C226.976 118.156 220.928 125.74 210.608 125.74C208.448 125.74 205.424 125.596 202.448 125.596C198.992 125.596 196.496 125.74 195.248 125.74Z" fill="#FFFBEB"/>
</svg>
