<svg  viewBox="0 0 25 25" fill="none" xmlns="http://www.w3.org/2000/svg">
<path d="M6.55469 14.1328C6.26562 14.1328 6.01953 14.0352 5.81641 13.8398C5.62109 13.6445 5.52344 13.4023 5.52344 13.1133C5.52344 12.832 5.62109 12.5938 5.81641 12.3984C6.01953 12.2031 6.26562 12.1055 6.55469 12.1055H11.3008V5.61328C11.3008 5.32422 11.3984 5.08203 11.5938 4.88672C11.7891 4.69141 12.0273 4.59375 12.3086 4.59375C12.5977 4.59375 12.8398 4.69141 13.0352 4.88672C13.2305 5.08203 13.3281 5.32422 13.3281 5.61328V13.1133C13.3281 13.4023 13.2305 13.6445 13.0352 13.8398C12.8398 14.0352 12.5977 14.1328 12.3086 14.1328H6.55469ZM12.3203 24.7617C10.6484 24.7617 9.07422 24.4414 7.59766 23.8008C6.12109 23.168 4.82031 22.2891 3.69531 21.1641C2.57031 20.0391 1.6875 18.7422 1.04688 17.2734C0.414062 15.7969 0.0976562 14.2188 0.0976562 12.5391C0.0976562 10.8672 0.414062 9.29688 1.04688 7.82812C1.6875 6.35156 2.56641 5.05078 3.68359 3.92578C4.80859 2.80078 6.10938 1.92188 7.58594 1.28906C9.0625 0.648438 10.6367 0.328125 12.3086 0.328125C13.9805 0.328125 15.5547 0.648438 17.0312 1.28906C18.5156 1.92188 19.8164 2.80078 20.9336 3.92578C22.0586 5.05078 22.9414 6.35156 23.582 7.82812C24.2227 9.29688 24.543 10.8672 24.543 12.5391C24.543 14.2188 24.2227 15.7969 23.582 17.2734C22.9414 18.7422 22.0586 20.0391 20.9336 21.1641C19.8164 22.2891 18.5195 23.168 17.043 23.8008C15.5664 24.4414 13.9922 24.7617 12.3203 24.7617ZM12.3203 22.0781C13.6406 22.0781 14.875 21.832 16.0234 21.3398C17.1797 20.8477 18.1953 20.168 19.0703 19.3008C19.9453 18.4258 20.6289 17.4141 21.1211 16.2656C21.6133 15.1094 21.8594 13.8672 21.8594 12.5391C21.8594 11.2188 21.6094 9.98438 21.1094 8.83594C20.6172 7.67969 19.9336 6.66406 19.0586 5.78906C18.1914 4.91406 17.1797 4.23047 16.0234 3.73828C14.875 3.24609 13.6367 3 12.3086 3C10.9883 3 9.75 3.24609 8.59375 3.73828C7.44531 4.23047 6.43359 4.91406 5.55859 5.78906C4.69141 6.66406 4.01172 7.67969 3.51953 8.83594C3.03516 9.98438 2.79297 11.2188 2.79297 12.5391C2.79297 13.8672 3.03516 15.1094 3.51953 16.2656C4.01172 17.4141 4.69531 18.4258 5.57031 19.3008C6.44531 20.168 7.45703 20.8477 8.60547 21.3398C9.76172 21.832 11 22.0781 12.3203 22.0781Z" fill="currentColor"/>
</svg>
