<svg  viewBox="0 0 22 22" fill="none" xmlns="http://www.w3.org/2000/svg">
<circle cx="11" cy="11" r="11" fill="black"/>
<path d="M9.89551 15.9363C9.5651 15.9363 9.28662 15.797 9.06006 15.5186L6.17847 11.929C6.08879 11.8204 6.02507 11.7166 5.9873 11.6174C5.94954 11.5136 5.93066 11.4074 5.93066 11.2988C5.93066 11.0581 6.0109 10.8599 6.17139 10.7041C6.33187 10.5436 6.53719 10.4634 6.78735 10.4634C7.06584 10.4634 7.29948 10.5837 7.48828 10.8245L9.86719 13.8831L14.4692 6.56226C14.5778 6.40177 14.6887 6.28849 14.802 6.22241C14.9153 6.15161 15.0569 6.11621 15.2268 6.11621C15.4722 6.11621 15.6729 6.19409 15.8286 6.34985C15.9891 6.5009 16.0693 6.69678 16.0693 6.9375C16.0693 7.0319 16.0528 7.12866 16.0198 7.22778C15.9915 7.3269 15.9419 7.43075 15.8711 7.53931L10.731 15.4973C10.5327 15.79 10.2542 15.9363 9.89551 15.9363Z" fill="white"/>
</svg>
