<svg viewBox="0 0 15 26" fill="none" xmlns="http://www.w3.org/2000/svg">
<path d="M0.581787 12.7351C0.581787 12.4904 0.624136 12.2646 0.708834 12.0575C0.802943 11.8505 0.944106 11.6529 1.13232 11.4647L12.1289 0.708026C12.4489 0.397467 12.8348 0.242188 13.2865 0.242188C13.597 0.242188 13.8747 0.317475 14.1193 0.468049C14.3734 0.609212 14.5758 0.802135 14.7263 1.04682C14.8769 1.2915 14.9522 1.56912 14.9522 1.87968C14.9522 2.32199 14.7781 2.71725 14.4299 3.06545L4.52024 12.7351L14.4299 22.4048C14.7781 22.753 14.9522 23.153 14.9522 23.6047C14.9522 23.9058 14.8769 24.1788 14.7263 24.4234C14.5758 24.6775 14.3734 24.8752 14.1193 25.0163C13.8747 25.1669 13.597 25.2422 13.2865 25.2422C12.8348 25.2422 12.4489 25.0822 12.1289 24.7622L1.13232 14.0056C0.944106 13.8174 0.802943 13.6198 0.708834 13.4127C0.624136 13.2057 0.581787 12.9798 0.581787 12.7351Z" fill="currentColor"/>
</svg>
