<svg viewBox="0 0 71 71" fill="none" xmlns="http://www.w3.org/2000/svg">
<path d="M35.2617 70.7188C30.4336 70.7188 25.8867 69.793 21.6211 67.9414C17.3789 66.1133 13.6289 63.582 10.3711 60.3477C7.13672 57.0898 4.59375 53.3398 2.74219 49.0977C0.914062 44.832 0 40.2852 0 35.457C0 30.6289 0.914062 26.0938 2.74219 21.8516C4.59375 17.5859 7.13672 13.8359 10.3711 10.6016C13.6055 7.34375 17.3438 4.80078 21.5859 2.97266C25.8516 1.12109 30.3984 0.195312 35.2266 0.195312C40.0547 0.195312 44.6016 1.12109 48.8672 2.97266C53.1328 4.80078 56.8828 7.34375 60.1172 10.6016C63.3516 13.8359 65.8945 17.5859 67.7461 21.8516C69.5977 26.0938 70.5234 30.6289 70.5234 35.457C70.5234 40.2852 69.5977 44.832 67.7461 49.0977C65.8945 53.3398 63.3516 57.0898 60.1172 60.3477C56.8828 63.582 53.1328 66.1133 48.8672 67.9414C44.625 69.793 40.0898 70.7188 35.2617 70.7188ZM35.2617 66.1836C39.5039 66.1836 43.4766 65.3867 47.1797 63.793C50.9062 62.1992 54.1758 59.9961 56.9883 57.1836C59.8242 54.3711 62.0273 51.1133 63.5977 47.4102C65.1914 43.6836 65.9883 39.6992 65.9883 35.457C65.9883 31.2148 65.1914 27.2422 63.5977 23.5391C62.0039 19.8125 59.8008 16.543 56.9883 13.7305C54.1758 10.8945 50.9062 8.69141 47.1797 7.12109C43.4766 5.52734 39.4922 4.73047 35.2266 4.73047C30.9844 4.73047 27 5.52734 23.2734 7.12109C19.5703 8.69141 16.3125 10.8945 13.5 13.7305C10.7109 16.543 8.51953 19.8125 6.92578 23.5391C5.35547 27.2422 4.57031 31.2148 4.57031 35.457C4.57031 39.6992 5.35547 43.6836 6.92578 47.4102C8.51953 51.1133 10.7227 54.3711 13.5352 57.1836C16.3477 59.9961 19.6055 62.1992 23.3086 63.793C27.0117 65.3867 30.9961 66.1836 35.2617 66.1836ZM31.4297 52.1211C30.9844 52.1211 30.5742 52.0273 30.1992 51.8398C29.8477 51.6289 29.5078 51.3125 29.1797 50.8906L19.7578 39.6055C19.3359 39.0195 19.125 38.457 19.125 37.918C19.125 37.332 19.3242 36.8281 19.7227 36.4062C20.1445 35.9844 20.6367 35.7734 21.1992 35.7734C21.5977 35.7734 21.9492 35.8555 22.2539 36.0195C22.582 36.1602 22.8984 36.4297 23.2031 36.8281L31.3242 46.8477L47.25 21.6758C47.7656 20.8789 48.3984 20.4805 49.1484 20.4805C49.7109 20.4805 50.2148 20.668 50.6602 21.043C51.1055 21.418 51.3281 21.8984 51.3281 22.4844C51.3281 22.7656 51.2578 23.0586 51.1172 23.3633C51 23.6445 50.8594 23.9141 50.6953 24.1719L33.6094 50.8906C33.0469 51.7109 32.3203 52.1211 31.4297 52.1211Z" fill="currentColor"/>
</svg>
