<svg viewBox="0 0 72 69" fill="none" xmlns="http://www.w3.org/2000/svg">
<path d="M26.0156 68.7891C24.3047 68.7891 22.8984 68.6133 21.7969 68.2617C20.7188 67.9102 19.7695 67.4062 18.9492 66.75C18.1523 66.0938 17.3438 65.3203 16.5234 64.4297L3.48047 50.2969C2.75391 49.5 2.19141 48.7617 1.79297 48.082C1.39453 47.4023 1.11328 46.6641 0.949219 45.8672C0.808594 45.0469 0.738281 44.0625 0.738281 42.9141V26.3203C0.738281 25.1719 0.808594 24.1992 0.949219 23.4023C1.11328 22.582 1.39453 21.832 1.79297 21.1523C2.19141 20.4727 2.75391 19.7461 3.48047 18.9727L16.5234 4.80469C17.3438 3.91406 18.1523 3.15234 18.9492 2.51953C19.7695 1.86328 20.7188 1.35938 21.7969 1.00781C22.8984 0.632812 24.3047 0.445312 26.0156 0.445312H46.0195C47.707 0.445312 49.1016 0.632812 50.2031 1.00781C51.3047 1.35938 52.2539 1.86328 53.0508 2.51953C53.8711 3.15234 54.6914 3.91406 55.5117 4.80469L68.5547 18.9727C69.2812 19.7461 69.832 20.4727 70.207 21.1523C70.6055 21.832 70.875 22.582 71.0156 23.4023C71.1797 24.1992 71.2617 25.1719 71.2617 26.3203V42.9141C71.2617 44.0625 71.1797 45.0469 71.0156 45.8672C70.875 46.6641 70.6055 47.4023 70.207 48.082C69.832 48.7617 69.2812 49.5 68.5547 50.2969L55.5117 64.4297C54.6914 65.3203 53.8711 66.0938 53.0508 66.75C52.2539 67.4062 51.3047 67.9102 50.2031 68.2617C49.1016 68.6133 47.707 68.7891 46.0195 68.7891H26.0156ZM36 41.0508C37.4531 41.0508 38.1914 40.2656 38.2148 38.6953L38.6367 19.5352C38.6367 18.7852 38.3789 18.1641 37.8633 17.6719C37.3711 17.1797 36.75 16.9336 36 16.9336C35.2031 16.9336 34.5586 17.1797 34.0664 17.6719C33.5977 18.1641 33.3633 18.7734 33.3633 19.5L33.75 38.6953C33.7734 40.2656 34.5234 41.0508 36 41.0508ZM36 52.1602C36.9141 52.1602 37.6992 51.8438 38.3555 51.2109C39.0352 50.5781 39.375 49.8164 39.375 48.9258C39.375 48.0352 39.0352 47.2734 38.3555 46.6406C37.6992 46.0078 36.9141 45.6914 36 45.6914C35.0859 45.6914 34.3008 46.0078 33.6445 46.6406C32.9883 47.2734 32.6602 48.0352 32.6602 48.9258C32.6602 49.8164 32.9883 50.5781 33.6445 51.2109C34.3242 51.8438 35.1094 52.1602 36 52.1602Z" fill="currentColor"/>
</svg>
