<svg viewBox="0 0 28 29" fill="none" xmlns="http://www.w3.org/2000/svg">
<path d="M14 0.932617C6.265 0.932617 0 7.19762 0 14.9326C0 21.1276 4.0075 26.3601 9.5725 28.2151C10.2725 28.3376 10.535 27.9176 10.535 27.5501C10.535 27.2176 10.5175 26.1151 10.5175 24.9426C7 25.5901 6.09 24.0851 5.81 23.2976C5.6525 22.8951 4.97 21.6526 4.375 21.3201C3.885 21.0576 3.185 20.4101 4.3575 20.3926C5.46 20.3751 6.2475 21.4076 6.51 21.8276C7.77 23.9451 9.7825 23.3501 10.5875 22.9826C10.71 22.0726 11.0775 21.4601 11.48 21.1101C8.365 20.7601 5.11 19.5526 5.11 14.1976C5.11 12.6751 5.6525 11.4151 6.545 10.4351C6.405 10.0851 5.915 8.65012 6.685 6.72512C6.685 6.72512 7.8575 6.35762 10.535 8.16012C11.655 7.84512 12.845 7.68762 14.035 7.68762C15.225 7.68762 16.415 7.84512 17.535 8.16012C20.2125 6.34012 21.385 6.72512 21.385 6.72512C22.155 8.65012 21.665 10.0851 21.525 10.4351C22.4175 11.4151 22.96 12.6576 22.96 14.1976C22.96 19.5701 19.6875 20.7601 16.5725 21.1101C17.08 21.5476 17.5175 22.3876 17.5175 23.7001C17.5175 25.5726 17.5 27.0776 17.5 27.5501C17.5 27.9176 17.7625 28.3551 18.4625 28.2151C21.2418 27.2769 23.6568 25.4907 25.3677 23.108C27.0786 20.7252 27.9993 17.866 28 14.9326C28 7.19762 21.735 0.932617 14 0.932617Z" fill="currentColor"/>
</svg>
