<svg viewBox="0 0 40 26" fill="none" xmlns="http://www.w3.org/2000/svg">
<path d="M5.06799 25.2422C3.39926 25.2422 2.13741 24.8147 1.28245 23.9597C0.427482 23.1151 0 21.8635 0 20.2051V5.24837C0 3.60024 0.427482 2.35385 1.28245 1.50918C2.13741 0.66452 3.39926 0.242188 5.06799 0.242188H34.2862C35.9446 0.242188 37.2013 0.66452 38.0562 1.50918C38.9215 2.35385 39.3541 3.60024 39.3541 5.24837V20.2051C39.3541 21.8532 38.9215 23.1048 38.0562 23.9597C37.2013 24.8147 35.9446 25.2422 34.2862 25.2422H5.06799ZM6.21137 9.11116H7.69468C8.20972 9.11116 8.46724 8.85879 8.46724 8.35405V6.87074C8.46724 6.366 8.20972 6.11363 7.69468 6.11363H6.21137C5.72724 6.11363 5.48517 6.366 5.48517 6.87074V8.35405C5.48517 8.85879 5.72724 9.11116 6.21137 9.11116ZM11.2948 9.11116H12.7781C13.2726 9.11116 13.5198 8.85879 13.5198 8.35405V6.87074C13.5198 6.366 13.2726 6.11363 12.7781 6.11363H11.2948C10.7901 6.11363 10.5377 6.366 10.5377 6.87074V8.35405C10.5377 8.85879 10.7901 9.11116 11.2948 9.11116ZM16.3782 9.11116H17.8461C18.3508 9.11116 18.6032 8.85879 18.6032 8.35405V6.87074C18.6032 6.366 18.3508 6.11363 17.8461 6.11363H16.3782C15.8735 6.11363 15.6211 6.366 15.6211 6.87074V8.35405C15.6211 8.85879 15.8735 9.11116 16.3782 9.11116ZM21.4462 9.11116H22.9295C23.4343 9.11116 23.6866 8.85879 23.6866 8.35405V6.87074C23.6866 6.366 23.4343 6.11363 22.9295 6.11363H21.4462C20.9518 6.11363 20.7046 6.366 20.7046 6.87074V8.35405C20.7046 8.85879 20.9518 9.11116 21.4462 9.11116ZM26.5606 9.11116H28.013C28.5074 9.11116 28.7546 8.85879 28.7546 8.35405V6.87074C28.7546 6.366 28.5074 6.11363 28.013 6.11363H26.5606C26.0352 6.11363 25.7726 6.366 25.7726 6.87074V8.35405C25.7726 8.85879 26.0352 9.11116 26.5606 9.11116ZM31.6131 9.11116H33.081C33.5754 9.11116 33.8226 8.85879 33.8226 8.35405V6.87074C33.8226 6.366 33.5754 6.11363 33.081 6.11363H31.6131C31.0981 6.11363 30.8405 6.366 30.8405 6.87074V8.35405C30.8405 8.85879 31.0981 9.11116 31.6131 9.11116ZM6.21137 14.2255H7.69468C8.20972 14.2255 8.46724 13.9731 8.46724 13.4684V11.9851C8.46724 11.4803 8.20972 11.228 7.69468 11.228H6.21137C5.72724 11.228 5.48517 11.4803 5.48517 11.9851V13.4684C5.48517 13.9731 5.72724 14.2255 6.21137 14.2255ZM11.2948 14.2255H12.7781C13.2726 14.2255 13.5198 13.9731 13.5198 13.4684V11.9851C13.5198 11.4803 13.2726 11.228 12.7781 11.228H11.2948C10.7901 11.228 10.5377 11.4803 10.5377 11.9851V13.4684C10.5377 13.9731 10.7901 14.2255 11.2948 14.2255ZM16.3782 14.2255H17.8461C18.3508 14.2255 18.6032 13.9731 18.6032 13.4684V11.9851C18.6032 11.4803 18.3508 11.228 17.8461 11.228H16.3782C15.8735 11.228 15.6211 11.4803 15.6211 11.9851V13.4684C15.6211 13.9731 15.8735 14.2255 16.3782 14.2255ZM21.4462 14.2255H22.9295C23.4343 14.2255 23.6866 13.9731 23.6866 13.4684V11.9851C23.6866 11.4803 23.4343 11.228 22.9295 11.228H21.4462C20.9518 11.228 20.7046 11.4803 20.7046 11.9851V13.4684C20.7046 13.9731 20.9518 14.2255 21.4462 14.2255ZM26.5606 14.2255H28.013C28.5074 14.2255 28.7546 13.9731 28.7546 13.4684V11.9851C28.7546 11.4803 28.5074 11.228 28.013 11.228H26.5606C26.0352 11.228 25.7726 11.4803 25.7726 11.9851V13.4684C25.7726 13.9731 26.0352 14.2255 26.5606 14.2255ZM31.6131 14.2255H33.081C33.5754 14.2255 33.8226 13.9731 33.8226 13.4684V11.9851C33.8226 11.4803 33.5754 11.228 33.081 11.228H31.6131C31.0981 11.228 30.8405 11.4803 30.8405 11.9851V13.4684C30.8405 13.9731 31.0981 14.2255 31.6131 14.2255ZM6.21137 19.3398H7.69468C8.20972 19.3398 8.46724 19.0875 8.46724 18.5827V17.0994C8.46724 16.5947 8.20972 16.3423 7.69468 16.3423H6.21137C5.72724 16.3423 5.48517 16.5947 5.48517 17.0994V18.5827C5.48517 19.0875 5.72724 19.3398 6.21137 19.3398ZM11.4339 19.3398H27.8739C28.4611 19.3398 28.7546 19.0411 28.7546 18.4437V17.223C28.7546 16.6359 28.4611 16.3423 27.8739 16.3423H11.4339C10.8364 16.3423 10.5377 16.6359 10.5377 17.223V18.4437C10.5377 19.0411 10.8364 19.3398 11.4339 19.3398ZM31.6131 19.3398H33.081C33.5754 19.3398 33.8226 19.0875 33.8226 18.5827V17.0994C33.8226 16.5947 33.5754 16.3423 33.081 16.3423H31.6131C31.0981 16.3423 30.8405 16.5947 30.8405 17.0994V18.5827C30.8405 19.0875 31.0981 19.3398 31.6131 19.3398Z" fill="currentColor"/>
</svg>
