<svg width="201" height="140" viewBox="0 0 201 140" fill="none" xmlns="http://www.w3.org/2000/svg">
<path d="M156.789 139.336H48.8203C41.9974 139.336 35.6693 138.164 29.8359 135.82C24.0547 133.529 18.9766 130.404 14.6016 126.445C10.2266 122.435 6.8151 117.799 4.36719 112.539C1.97135 107.279 0.773438 101.68 0.773438 95.7422C0.773438 89.2318 1.94531 83.2422 4.28906 77.7734C6.63281 72.2526 9.96615 67.6693 14.2891 64.0234C18.612 60.3776 23.7422 58.0339 29.6797 56.9922C29.888 51.5234 31.2161 46.5755 33.6641 42.1484C36.112 37.6693 39.2891 33.9714 43.1953 31.0547C47.1536 28.0859 51.5547 26.1068 56.3984 25.1172C61.2422 24.0755 66.112 24.2318 71.0078 25.5859C74.2891 20.8464 78.1953 16.6016 82.7266 12.8516C87.2578 9.10156 92.388 6.13281 98.1172 3.94531C103.898 1.75781 110.279 0.664062 117.258 0.664062C125.435 0.664062 133.039 2.14844 140.07 5.11719C147.102 8.08594 153.247 12.3047 158.508 17.7734C163.82 23.2422 167.935 29.6745 170.852 37.0703C173.82 44.4661 175.305 52.5911 175.305 61.4453C180.461 63.5807 184.914 66.5495 188.664 70.3516C192.414 74.1536 195.279 78.5286 197.258 83.4766C199.237 88.4245 200.227 93.6589 200.227 99.1797C200.227 104.753 199.107 109.961 196.867 114.805C194.68 119.648 191.607 123.919 187.648 127.617C183.69 131.263 179.055 134.128 173.742 136.211C168.482 138.294 162.831 139.336 156.789 139.336ZM74.6016 105.43C74.6016 110.742 77.1016 113.398 82.1016 113.398H118.977C124.081 113.398 126.633 110.742 126.633 105.43V77.0703C126.633 72.1745 124.602 69.5443 120.539 69.1797V61.0547C120.539 54.388 118.69 48.9974 114.992 44.8828C111.346 40.7682 106.555 38.7109 100.617 38.7109C94.6797 38.7109 89.862 40.7682 86.1641 44.8828C82.4661 48.9974 80.6172 54.388 80.6172 61.0547V69.1797C76.6068 69.5443 74.6016 72.1745 74.6016 77.0703V105.43ZM89.2109 69.0234V60.2734C89.2109 56.3151 90.2526 53.112 92.3359 50.6641C94.4193 48.2161 97.1797 46.9922 100.617 46.9922C104.003 46.9922 106.737 48.2161 108.82 50.6641C110.904 53.0599 111.945 56.263 111.945 60.2734V69.0234H89.2109Z" fill="white"/>
</svg>
