<svg width="25" height="25" viewBox="0 0 25 25" fill="none" xmlns="http://www.w3.org/2000/svg">
<path d="M12.6797 24.7617C11.0078 24.7617 9.43359 24.4414 7.95703 23.8008C6.48047 23.168 5.17969 22.2891 4.05469 21.1641C2.92969 20.0391 2.04688 18.7422 1.40625 17.2734C0.773438 15.7969 0.457031 14.2188 0.457031 12.5391C0.457031 10.8672 0.773438 9.29688 1.40625 7.82812C2.04688 6.35156 2.92578 5.05078 4.04297 3.92578C5.16797 2.80078 6.46875 1.92188 7.94531 1.28906C9.42188 0.648437 10.9961 0.328125 12.668 0.328125C14.3398 0.328125 15.9141 0.648437 17.3906 1.28906C18.875 1.92188 20.1758 2.80078 21.293 3.92578C22.418 5.05078 23.3008 6.35156 23.9414 7.82812C24.582 9.29688 24.9023 10.8672 24.9023 12.5391C24.9023 14.2188 24.582 15.7969 23.9414 17.2734C23.3008 18.7422 22.418 20.0391 21.293 21.1641C20.1758 22.2891 18.8789 23.168 17.4023 23.8008C15.9258 24.4414 14.3516 24.7617 12.6797 24.7617ZM8.89453 17.5312C9.25391 17.5312 9.55469 17.4141 9.79688 17.1797L12.6914 14.2734L15.5977 17.1797C15.8242 17.4141 16.1133 17.5312 16.4648 17.5312C16.8086 17.5312 17.0977 17.4141 17.332 17.1797C17.5664 16.9453 17.6836 16.6562 17.6836 16.3125C17.6836 15.9766 17.5625 15.6953 17.3203 15.4688L14.4023 12.5508L17.332 9.63281C17.5664 9.39062 17.6836 9.10938 17.6836 8.78906C17.6836 8.44531 17.5664 8.16016 17.332 7.93359C17.1055 7.69922 16.8242 7.58203 16.4883 7.58203C16.1445 7.58203 15.8555 7.69922 15.6211 7.93359L12.6914 10.8516L9.77344 7.94531C9.53125 7.71094 9.23828 7.59375 8.89453 7.59375C8.55859 7.59375 8.27344 7.71094 8.03906 7.94531C7.8125 8.17188 7.69922 8.45703 7.69922 8.80078C7.69922 9.12109 7.81641 9.39844 8.05078 9.63281L10.9805 12.5508L8.05078 15.4805C7.81641 15.7148 7.69922 15.9922 7.69922 16.3125C7.69922 16.6562 7.8125 16.9453 8.03906 17.1797C8.27344 17.4141 8.55859 17.5312 8.89453 17.5312Z" fill="#D4D4D4"/>
</svg>
