<svg viewBox="0 0 39 36" fill="none" xmlns="http://www.w3.org/2000/svg">
<path d="M19.4858 27.5098C18.0226 27.5098 16.6396 27.2313 15.3369 26.6743C14.0436 26.1079 12.9014 25.3291 11.9102 24.3379C10.9284 23.3467 10.1543 22.2044 9.58789 20.9111C9.03092 19.6178 8.75244 18.2396 8.75244 16.7764C8.75244 15.4736 8.979 14.237 9.43213 13.0664C9.88525 11.8864 10.5177 10.8197 11.3296 9.86621C12.1414 8.91276 13.076 8.12923 14.1333 7.51562V3.80566C14.1333 2.86165 14.4071 2.12061 14.9546 1.58252C15.5021 1.03499 16.2432 0.76123 17.1777 0.76123H21.8364C22.7899 0.76123 23.5356 1.03499 24.0737 1.58252C24.6118 2.12061 24.8809 2.86165 24.8809 3.80566V7.54395C25.9476 8.16699 26.8774 8.95052 27.6704 9.89453C28.4634 10.8385 29.0817 11.8958 29.5254 13.0664C29.9785 14.237 30.2051 15.4736 30.2051 16.7764C30.2051 18.2396 29.9219 19.6178 29.3555 20.9111C28.7985 22.2044 28.0244 23.3467 27.0332 24.3379C26.042 25.3291 24.8997 26.1079 23.6064 26.6743C22.3132 27.2313 20.9396 27.5098 19.4858 27.5098ZM30.7148 7.54395C30.4411 7.81771 30.106 7.95459 29.7095 7.95459C29.3224 7.95459 28.992 7.81771 28.7183 7.54395C28.4539 7.27962 28.3218 6.94922 28.3218 6.55273C28.3218 6.15625 28.4539 5.82585 28.7183 5.56152L30.814 3.46582C31.0877 3.2015 31.4181 3.06934 31.8052 3.06934C32.2017 3.06934 32.5273 3.2015 32.7822 3.46582C33.056 3.73958 33.1929 4.06999 33.1929 4.45703C33.1929 4.84408 33.056 5.17448 32.7822 5.44824L30.7148 7.54395ZM33.9575 18.1782C33.5705 18.1782 33.2401 18.0413 32.9663 17.7676C32.6925 17.4938 32.5557 17.1634 32.5557 16.7764C32.5557 16.3893 32.6925 16.0589 32.9663 15.7852C33.2401 15.5114 33.5705 15.3745 33.9575 15.3745H36.9028C37.2899 15.3745 37.6203 15.5114 37.894 15.7852C38.1678 16.0589 38.3047 16.3893 38.3047 16.7764C38.3047 17.1634 38.1678 17.4938 37.894 17.7676C37.6203 18.0413 37.2899 18.1782 36.9028 18.1782H33.9575ZM28.7183 27.9912C28.4539 27.7174 28.3218 27.387 28.3218 27C28.3218 26.6035 28.4539 26.2684 28.7183 25.9946C28.992 25.7303 29.3224 25.5981 29.7095 25.5981C30.106 25.5981 30.4411 25.7303 30.7148 25.9946L32.7822 28.1045C33.056 28.3688 33.1929 28.6945 33.1929 29.0815C33.1929 29.478 33.056 29.8084 32.7822 30.0728C32.5273 30.3465 32.2017 30.4834 31.8052 30.4834C31.4181 30.4834 31.0877 30.3465 30.814 30.0728L28.7183 27.9912ZM20.916 31.2056V34.165C20.916 34.5426 20.7791 34.8683 20.5054 35.1421C20.2316 35.4159 19.9012 35.5527 19.5142 35.5527C19.1271 35.5527 18.7967 35.4159 18.5229 35.1421C18.2492 34.8683 18.1123 34.5426 18.1123 34.165V31.2056C18.1123 30.828 18.2492 30.4976 18.5229 30.2144C18.7967 29.9406 19.1271 29.8037 19.5142 29.8037C19.9012 29.8037 20.2316 29.9406 20.5054 30.2144C20.7791 30.4976 20.916 30.828 20.916 31.2056ZM10.2534 27.9912L8.17188 30.0728C7.89811 30.3465 7.56771 30.4834 7.18066 30.4834C6.79362 30.4834 6.46322 30.3465 6.18945 30.0728C5.92513 29.8084 5.79297 29.478 5.79297 29.0815C5.79297 28.6945 5.92513 28.3688 6.18945 28.1045L8.28516 25.9946C8.54948 25.7303 8.87988 25.5981 9.27637 25.5981C9.67285 25.5981 9.99854 25.7303 10.2534 25.9946C10.5272 26.2684 10.6641 26.6035 10.6641 27C10.6641 27.387 10.5272 27.7174 10.2534 27.9912ZM5.02832 18.1782H2.08301C1.69596 18.1782 1.36556 18.0413 1.0918 17.7676C0.818034 17.4938 0.681152 17.1634 0.681152 16.7764C0.681152 16.3893 0.818034 16.0589 1.0918 15.7852C1.36556 15.5114 1.69596 15.3745 2.08301 15.3745H5.02832C5.41536 15.3745 5.74577 15.5114 6.01953 15.7852C6.30273 16.0589 6.44434 16.3893 6.44434 16.7764C6.44434 17.1634 6.30273 17.4938 6.01953 17.7676C5.74577 18.0413 5.41536 18.1782 5.02832 18.1782ZM8.28516 7.54395L6.18945 5.44824C5.92513 5.17448 5.79297 4.84408 5.79297 4.45703C5.79297 4.06999 5.92513 3.73958 6.18945 3.46582C6.46322 3.2015 6.79362 3.06934 7.18066 3.06934C7.56771 3.06934 7.89811 3.2015 8.17188 3.46582L10.2534 5.56152C10.5272 5.82585 10.6641 6.15625 10.6641 6.55273C10.6641 6.94922 10.5272 7.27962 10.2534 7.54395C9.99854 7.81771 9.67285 7.95459 9.27637 7.95459C8.87988 7.95459 8.54948 7.81771 8.28516 7.54395Z" fill="currentColor"/>
</svg>
