<svg viewBox="0 0 35 35" fill="none" xmlns="http://www.w3.org/2000/svg">
<path d="M12.8516 27.9321C11.8148 27.9321 11.0229 27.6587 10.4761 27.1118C9.94059 26.5649 9.67285 25.7617 9.67285 24.7021V10.603C9.67285 9.55485 9.94059 8.75732 10.4761 8.21045C11.0229 7.66357 11.8148 7.39014 12.8516 7.39014H16.3892V15.1831C16.3892 15.7756 16.5487 16.237 16.8677 16.5674C17.1981 16.8978 17.6595 17.063 18.252 17.063H26.062V24.7021C26.062 25.7617 25.7886 26.5649 25.2417 27.1118C24.7062 27.6587 23.9144 27.9321 22.8662 27.9321H12.8516ZM18.8159 15.1831C18.4513 15.1831 18.269 15.0008 18.269 14.6362V7.47559C18.4741 7.50977 18.6849 7.60091 18.9014 7.74902C19.1292 7.89714 19.3685 8.09652 19.6191 8.34717L25.0708 13.8159C25.3328 14.0666 25.5379 14.3058 25.686 14.5337C25.8341 14.7502 25.9253 14.9666 25.9595 15.1831H18.8159ZM2.23877 12.1582C1.12223 12.1582 0.563965 11.5885 0.563965 10.4492V6.29639C0.563965 4.47347 1.03678 3.09489 1.98242 2.16064C2.92806 1.2264 4.32373 0.759277 6.16943 0.759277H10.3223C11.4502 0.759277 12.0142 1.31755 12.0142 2.43408C12.0142 3.56201 11.4502 4.12598 10.3223 4.12598H6.37451C5.57699 4.12598 4.96745 4.33105 4.5459 4.74121C4.13574 5.15137 3.93066 5.7723 3.93066 6.604V10.4492C3.93066 11.5885 3.3667 12.1582 2.23877 12.1582ZM32.7441 12.1582C31.6276 12.1582 31.0693 11.5885 31.0693 10.4492V6.604C31.0693 5.7723 30.8529 5.15137 30.4199 4.74121C29.9984 4.33105 29.3945 4.12598 28.6084 4.12598H24.6606C23.5327 4.12598 22.9688 3.56201 22.9688 2.43408C22.9688 1.31755 23.5327 0.759277 24.6606 0.759277H28.8135C30.6706 0.759277 32.0719 1.2264 33.0176 2.16064C33.9632 3.09489 34.436 4.47347 34.436 6.29639V10.4492C34.436 11.5885 33.8721 12.1582 32.7441 12.1582ZM6.16943 34.6143C4.32373 34.6143 2.92806 34.1414 1.98242 33.1958C1.03678 32.2616 0.563965 30.883 0.563965 29.0601V24.9243C0.563965 23.785 1.12223 23.2153 2.23877 23.2153C3.3667 23.2153 3.93066 23.785 3.93066 24.9243V28.7695C3.93066 29.6012 4.13574 30.2222 4.5459 30.6323C4.96745 31.0425 5.57699 31.2476 6.37451 31.2476H10.3223C11.4502 31.2476 12.0142 31.8115 12.0142 32.9395C12.0142 34.056 11.4502 34.6143 10.3223 34.6143H6.16943ZM24.6606 34.6143C23.5327 34.6143 22.9688 34.056 22.9688 32.9395C22.9688 31.8115 23.5327 31.2476 24.6606 31.2476H28.6084C29.3945 31.2476 29.9984 31.0425 30.4199 30.6323C30.8529 30.2222 31.0693 29.6012 31.0693 28.7695V24.9243C31.0693 23.785 31.6276 23.2153 32.7441 23.2153C33.8721 23.2153 34.436 23.785 34.436 24.9243V29.0601C34.436 30.883 33.9632 32.2616 33.0176 33.1958C32.0719 34.1414 30.6706 34.6143 28.8135 34.6143H24.6606Z" fill="currentColor"/>
</svg>
