<svg viewBox="0 0 16 19" fill="none" xmlns="http://www.w3.org/2000/svg">
<path d="M4.02441 4.3042V2.51709C4.02441 1.72607 4.22461 1.12793 4.625 0.722656C5.02539 0.3125 5.61865 0.107422 6.40479 0.107422H9.15869C9.5835 0.107422 9.96191 0.168457 10.2939 0.290527C10.6309 0.407715 10.936 0.60791 11.2095 0.891113L14.8569 4.60449C15.145 4.90234 15.3477 5.21973 15.4648 5.55664C15.582 5.88867 15.6406 6.29639 15.6406 6.77979V12.5806C15.6406 13.3716 15.438 13.9697 15.0327 14.375C14.6323 14.7803 14.0415 14.9829 13.2603 14.9829H11.7588V13.5474H13.1284C13.4849 13.5474 13.751 13.457 13.9268 13.2764C14.1074 13.0908 14.1978 12.8296 14.1978 12.4927V6.42822H10.9751C10.521 6.42822 10.1768 6.31348 9.94238 6.08398C9.70801 5.84961 9.59082 5.50537 9.59082 5.05127V1.55029H6.52197C6.17041 1.55029 5.9043 1.64062 5.72363 1.82129C5.54785 2.00195 5.45996 2.26318 5.45996 2.60498V4.3042H4.02441ZM10.792 4.86816C10.792 4.99512 10.8188 5.08789 10.8726 5.14648C10.9312 5.2002 11.0215 5.22705 11.1436 5.22705H13.8242L10.792 2.15088V4.86816ZM0.398926 16.3379V6.27441C0.398926 5.4834 0.599121 4.88525 0.999512 4.47998C1.3999 4.06982 1.99316 3.86475 2.7793 3.86475H5.32812C5.77246 3.86475 6.13867 3.91357 6.42676 4.01123C6.71973 4.104 7.0127 4.30176 7.30566 4.60449L11.2754 8.63281C11.4805 8.84277 11.6367 9.04297 11.7441 9.2334C11.8516 9.42383 11.9224 9.63623 11.9565 9.87061C11.9956 10.1001 12.0151 10.3784 12.0151 10.7056V16.3379C12.0151 17.1289 11.8149 17.7271 11.4146 18.1323C11.0142 18.5376 10.4209 18.7402 9.63477 18.7402H2.7793C1.99316 18.7402 1.3999 18.5376 0.999512 18.1323C0.599121 17.7319 0.398926 17.1338 0.398926 16.3379ZM1.8418 16.25C1.8418 16.5918 1.92969 16.853 2.10547 17.0337C2.28125 17.2144 2.54492 17.3047 2.89648 17.3047H9.51025C9.86182 17.3047 10.1255 17.2144 10.3013 17.0337C10.4819 16.853 10.5723 16.5918 10.5723 16.25V10.874H6.70508C6.1875 10.874 5.79932 10.7471 5.54053 10.4932C5.28174 10.2344 5.15234 9.84131 5.15234 9.31396V5.30762H2.90381C2.54736 5.30762 2.28125 5.39795 2.10547 5.57861C1.92969 5.75928 1.8418 6.01807 1.8418 6.35498V16.25ZM6.85156 9.60693H10.3745L6.41943 5.58594V9.1748C6.41943 9.32617 6.45361 9.43604 6.52197 9.50439C6.59033 9.57275 6.7002 9.60693 6.85156 9.60693Z" fill="currentColor"/>
</svg>
