<svg viewBox="0 0 32 32" fill="none" xmlns="http://www.w3.org/2000/svg">
<path d="M3.67432 14.7217C2.44385 14.7217 1.521 14.4141 0.905762 13.7988C0.301921 13.1836 0 12.238 0 10.9619V3.83545C0 2.55941 0.301921 1.61947 0.905762 1.01562C1.521 0.400391 2.44385 0.0927734 3.67432 0.0927734H10.9375C12.168 0.0927734 13.0908 0.400391 13.7061 1.01562C14.3213 1.61947 14.6289 2.55941 14.6289 3.83545V10.9619C14.6289 12.238 14.3213 13.1836 13.7061 13.7988C13.0908 14.4141 12.168 14.7217 10.9375 14.7217H3.67432ZM3.62305 12.0044H10.9888C11.2964 12.0044 11.5299 11.9246 11.6895 11.7651C11.849 11.6056 11.9287 11.3664 11.9287 11.0474V3.73291C11.9287 3.4139 11.849 3.18034 11.6895 3.03223C11.5299 2.87272 11.2964 2.79297 10.9888 2.79297H3.62305C3.31543 2.79297 3.08187 2.87272 2.92236 3.03223C2.77425 3.18034 2.7002 3.4139 2.7002 3.73291V11.0474C2.7002 11.3664 2.77425 11.6056 2.92236 11.7651C3.08187 11.9246 3.31543 12.0044 3.62305 12.0044ZM5.77637 9.28711C5.53711 9.28711 5.41748 9.14469 5.41748 8.85986V5.90332C5.41748 5.64128 5.53711 5.51025 5.77637 5.51025H8.81836C9.06901 5.51025 9.19434 5.64128 9.19434 5.90332V8.85986C9.19434 9.14469 9.06901 9.28711 8.81836 9.28711H5.77637ZM20.9692 14.7217C19.7388 14.7217 18.8159 14.4141 18.2007 13.7988C17.5854 13.1836 17.2778 12.238 17.2778 10.9619V3.83545C17.2778 2.55941 17.5854 1.61947 18.2007 1.01562C18.8159 0.400391 19.7388 0.0927734 20.9692 0.0927734H28.2324C29.4629 0.0927734 30.38 0.400391 30.9839 1.01562C31.5991 1.61947 31.9067 2.55941 31.9067 3.83545V10.9619C31.9067 12.238 31.5991 13.1836 30.9839 13.7988C30.38 14.4141 29.4629 14.7217 28.2324 14.7217H20.9692ZM20.918 12.0044H28.2837C28.6027 12.0044 28.8363 11.9246 28.9844 11.7651C29.1325 11.6056 29.2065 11.3664 29.2065 11.0474V3.73291C29.2065 3.4139 29.1325 3.18034 28.9844 3.03223C28.8363 2.87272 28.6027 2.79297 28.2837 2.79297H20.918C20.599 2.79297 20.3597 2.87272 20.2002 3.03223C20.0521 3.18034 19.978 3.4139 19.978 3.73291V11.0474C19.978 11.3664 20.0521 11.6056 20.2002 11.7651C20.3597 11.9246 20.599 12.0044 20.918 12.0044ZM23.1396 9.28711C22.9232 9.28711 22.8149 9.14469 22.8149 8.85986V5.90332C22.8149 5.64128 22.9232 5.51025 23.1396 5.51025H26.1987C26.4494 5.51025 26.5747 5.64128 26.5747 5.90332V8.85986C26.5747 9.14469 26.4494 9.28711 26.1987 9.28711H23.1396ZM3.67432 31.9995C2.44385 31.9995 1.521 31.6919 0.905762 31.0767C0.301921 30.4728 0 29.5329 0 28.2568V21.1133C0 19.8486 0.301921 18.9087 0.905762 18.2935C1.521 17.6782 2.44385 17.3706 3.67432 17.3706H10.9375C12.168 17.3706 13.0908 17.6782 13.7061 18.2935C14.3213 18.9087 14.6289 19.8486 14.6289 21.1133V28.2568C14.6289 29.5329 14.3213 30.4728 13.7061 31.0767C13.0908 31.6919 12.168 31.9995 10.9375 31.9995H3.67432ZM3.62305 29.2993H10.9888C11.2964 29.2993 11.5299 29.2196 11.6895 29.0601C11.849 28.9006 11.9287 28.667 11.9287 28.3594V21.0278C11.9287 20.7088 11.849 20.4696 11.6895 20.3101C11.5299 20.1506 11.2964 20.0708 10.9888 20.0708H3.62305C3.31543 20.0708 3.08187 20.1506 2.92236 20.3101C2.77425 20.4696 2.7002 20.7088 2.7002 21.0278V28.3594C2.7002 28.667 2.77425 28.9006 2.92236 29.0601C3.08187 29.2196 3.31543 29.2993 3.62305 29.2993ZM5.77637 26.582C5.53711 26.582 5.41748 26.4396 5.41748 26.1548V23.1982C5.41748 22.9362 5.53711 22.8052 5.77637 22.8052H8.81836C9.06901 22.8052 9.19434 22.9362 9.19434 23.1982V26.1548C9.19434 26.4396 9.06901 26.582 8.81836 26.582H5.77637ZM18.4912 21.9336C18.252 21.9336 18.1323 21.7969 18.1323 21.5234V18.5669C18.1323 18.3049 18.252 18.1738 18.4912 18.1738H21.5332C21.7725 18.1738 21.8921 18.3049 21.8921 18.5669V21.5234C21.8921 21.7969 21.7725 21.9336 21.5332 21.9336H18.4912ZM27.6343 21.9336C27.395 21.9336 27.2754 21.7969 27.2754 21.5234V18.5669C27.2754 18.3049 27.395 18.1738 27.6343 18.1738H30.6763C30.9155 18.1738 31.0352 18.3049 31.0352 18.5669V21.5234C31.0352 21.7969 30.9155 21.9336 30.6763 21.9336H27.6343ZM23.1055 26.5308C22.8662 26.5308 22.7466 26.3883 22.7466 26.1035V23.147C22.7466 22.8849 22.8662 22.7539 23.1055 22.7539H26.1475C26.3867 22.7539 26.5063 22.8849 26.5063 23.147V26.1035C26.5063 26.3883 26.3867 26.5308 26.1475 26.5308H23.1055ZM18.4912 31.0938C18.252 31.0938 18.1323 30.957 18.1323 30.6836V27.71C18.1323 27.4479 18.252 27.3169 18.4912 27.3169H21.5332C21.7725 27.3169 21.8921 27.4479 21.8921 27.71V30.6836C21.8921 30.957 21.7725 31.0938 21.5332 31.0938H18.4912ZM27.6343 31.0938C27.395 31.0938 27.2754 30.957 27.2754 30.6836V27.71C27.2754 27.4479 27.395 27.3169 27.6343 27.3169H30.6763C30.9155 27.3169 31.0352 27.4479 31.0352 27.71V30.6836C31.0352 30.957 30.9155 31.0938 30.6763 31.0938H27.6343Z" fill="currentColor"/>
</svg>
