<svg viewBox="0 0 51 51" fill="none" xmlns="http://www.w3.org/2000/svg">
<path d="M3.13064 17.5008C1.27971 17.5008 0.354248 16.5587 0.354248 14.6744V8.64639C0.354248 5.91169 1.07127 3.82731 2.50532 2.39326C3.95605 0.959213 6.06544 0.242188 8.83349 0.242188H14.8615C16.7458 0.242188 17.6879 1.16765 17.6879 3.01858C17.6879 4.88618 16.7458 5.81998 14.8615 5.81998H9.28371C8.18316 5.81998 7.34108 6.10345 6.75745 6.6704C6.1905 7.22068 5.90702 8.0711 5.90702 9.22168V14.6744C5.90702 16.5587 4.98156 17.5008 3.13064 17.5008ZM47.5528 17.5008C45.7019 17.5008 44.7765 16.5587 44.7765 14.6744V9.22168C44.7765 8.0711 44.4846 7.22068 43.901 6.6704C43.3174 6.10345 42.4836 5.81998 41.3998 5.81998H35.822C33.9544 5.81998 33.0206 4.88618 33.0206 3.01858C33.0206 1.16765 33.9544 0.242188 35.822 0.242188H41.875C44.6431 0.242188 46.7441 0.959213 48.1782 2.39326C49.6289 3.82731 50.3542 5.91169 50.3542 8.64639V14.6744C50.3542 16.5587 49.4204 17.5008 47.5528 17.5008ZM8.83349 50.2422C6.06544 50.2422 3.95605 49.5252 2.50532 48.0911C1.07127 46.6571 0.354248 44.5727 0.354248 41.838V35.785C0.354248 33.9174 1.27971 32.9836 3.13064 32.9836C4.98156 32.9836 5.90702 33.9174 5.90702 35.785V41.2627C5.90702 42.4133 6.1905 43.2637 6.75745 43.814C7.34108 44.3809 8.18316 44.6644 9.28371 44.6644H14.8615C16.7458 44.6644 17.6879 45.5982 17.6879 47.4658C17.6879 49.3167 16.7458 50.2422 14.8615 50.2422H8.83349ZM35.822 50.2422C33.9544 50.2422 33.0206 49.3167 33.0206 47.4658C33.0206 45.5982 33.9544 44.6644 35.822 44.6644H41.3998C42.4836 44.6644 43.3174 44.3809 43.901 43.814C44.4846 43.2637 44.7765 42.4133 44.7765 41.2627V35.785C44.7765 33.9174 45.7019 32.9836 47.5528 32.9836C49.4204 32.9836 50.3542 33.9174 50.3542 35.785V41.838C50.3542 44.5727 49.6289 46.6571 48.1782 48.0911C46.7441 49.5252 44.6431 50.2422 41.875 50.2422H35.822ZM14.5113 37.1606C14.1945 37.1606 13.9277 37.0606 13.7109 36.8605C13.5108 36.6604 13.4108 36.4019 13.4108 36.0851V27.4058C13.4108 27.0889 13.5108 26.8305 13.7109 26.6304C13.9277 26.4303 14.1945 26.3302 14.5113 26.3302H23.1657C23.4825 26.3302 23.7409 26.4303 23.941 26.6304C24.1578 26.8305 24.2662 27.0889 24.2662 27.4058V36.0851C24.2662 36.4019 24.1578 36.6604 23.941 36.8605C23.7409 37.0606 23.4825 37.1606 23.1657 37.1606H14.5113ZM15.5869 35.0096H22.0901V28.4813H15.5869V35.0096ZM17.4878 33.0836V30.3823H20.1892V33.0836H17.4878ZM14.5113 24.1541C14.1945 24.1541 13.9277 24.0541 13.7109 23.854C13.5108 23.6372 13.4108 23.3788 13.4108 23.0786V14.3993C13.4108 14.0991 13.5108 13.8407 13.7109 13.6239C13.9277 13.4071 14.1945 13.2987 14.5113 13.2987H23.1657C23.4825 13.2987 23.7409 13.4071 23.941 13.6239C24.1578 13.8407 24.2662 14.0991 24.2662 14.3993V23.0786C24.2662 23.3788 24.1578 23.6372 23.941 23.854C23.7409 24.0541 23.4825 24.1541 23.1657 24.1541H14.5113ZM15.5869 21.9781H22.0901V15.4748H15.5869V21.9781ZM17.4878 20.1021V17.3758H20.1892V20.1021H17.4878ZM27.4928 24.1541C27.1927 24.1541 26.9342 24.0541 26.7174 23.854C26.5173 23.6372 26.4173 23.3788 26.4173 23.0786V14.3993C26.4173 14.0991 26.5173 13.8407 26.7174 13.6239C26.9342 13.4071 27.1927 13.2987 27.4928 13.2987H36.1972C36.4973 13.2987 36.7474 13.4071 36.9475 13.6239C37.1643 13.8407 37.2727 14.0991 37.2727 14.3993V23.0786C37.2727 23.3788 37.1643 23.6372 36.9475 23.854C36.7474 24.0541 36.4973 24.1541 36.1972 24.1541H27.4928ZM28.5684 21.9781H35.0966V15.4748H28.5684V21.9781ZM30.4943 20.1021V17.3758H33.1957V20.1021H30.4943ZM26.7174 36.8605V34.1341H29.4438V36.8605H26.7174ZM34.2462 36.8605V34.1341H36.9726V36.8605H34.2462ZM30.4943 33.0836V30.3823H33.1957V33.0836H30.4943ZM26.7174 29.3317V26.6304H29.4438V29.3317H26.7174ZM34.2462 29.3317V26.6304H36.9726V29.3317H34.2462Z" fill="currentColor"/>
</svg>
