<svg viewBox="0 0 31 37" fill="none" xmlns="http://www.w3.org/2000/svg">
<path d="M15.5698 32.5732C15.9572 32.5732 16.2933 32.4422 16.5781 32.1802C16.863 31.9181 17.0054 31.5991 17.0054 31.2231V25.5493L16.8516 22.9858L19.5518 25.7544C19.6885 25.8797 19.8366 25.988 19.9961 26.0791C20.167 26.1589 20.3436 26.1987 20.5259 26.1987C20.8905 26.1987 21.1981 26.0848 21.4487 25.8569C21.6994 25.6177 21.8247 25.3158 21.8247 24.9512C21.8247 24.7461 21.7848 24.5638 21.7051 24.4043C21.6253 24.2448 21.5114 24.0967 21.3633 23.96L16.6465 19.6362C16.4642 19.4653 16.2876 19.34 16.1167 19.2603C15.9458 19.1805 15.7635 19.1406 15.5698 19.1406C15.3647 19.1406 15.1768 19.1805 15.0059 19.2603C14.835 19.34 14.6584 19.4653 14.4761 19.6362L9.77637 23.96C9.62826 24.0967 9.51432 24.2448 9.43457 24.4043C9.35482 24.5638 9.31494 24.7461 9.31494 24.9512C9.31494 25.3158 9.43457 25.6177 9.67383 25.8569C9.91309 26.0848 10.2264 26.1987 10.6138 26.1987C10.7847 26.1987 10.9556 26.1589 11.1265 26.0791C11.2974 25.988 11.4455 25.8797 11.5708 25.7544L14.271 22.9858L14.1343 25.5493V31.2231C14.1343 31.5991 14.271 31.9181 14.5444 32.1802C14.8293 32.4422 15.1711 32.5732 15.5698 32.5732ZM6.46094 36.9995C4.62663 36.9995 3.24235 36.5267 2.30811 35.5811C1.37386 34.6354 0.906738 33.2397 0.906738 31.394V5.60547C0.906738 3.77116 1.37386 2.38118 2.30811 1.43555C3.24235 0.478516 4.62663 0 6.46094 0H14.2539V12.9199C14.2539 15.0391 15.3135 16.0986 17.4326 16.0986H30.2158V31.394C30.2158 33.2284 29.7487 34.6183 28.8145 35.564C27.8802 36.521 26.4959 36.9995 24.6616 36.9995H6.46094ZM17.7402 13.6035C17.0908 13.6035 16.7661 13.2788 16.7661 12.6294V0.170898C17.1535 0.216471 17.5409 0.375977 17.9282 0.649414C18.327 0.922852 18.7371 1.27604 19.1587 1.70898L28.4897 11.1768C28.9341 11.6325 29.2873 12.054 29.5493 12.4414C29.8228 12.8288 29.9823 13.2161 30.0278 13.6035H17.7402Z" fill="currentColor"/>
</svg>
