<svg viewBox="0 0 85 72" fill="none" xmlns="http://www.w3.org/2000/svg">
<path d="M40.9346 53.207C39.7861 53.207 39.0947 52.6445 38.8604 51.5195L38.1221 48.25C37.8877 48.1797 37.6533 48.0977 37.4189 48.0039C37.1846 47.9102 36.9268 47.793 36.6455 47.6523L33.7275 49.4102C33.2822 49.668 32.8252 49.7969 32.3564 49.7969C31.8877 49.7734 31.4658 49.5508 31.0908 49.1289L29.1572 47.1602C28.8057 46.8086 28.6064 46.3984 28.5596 45.9297C28.5361 45.4375 28.665 44.9688 28.9463 44.5234L30.6338 41.5703C30.54 41.3359 30.4346 41.1133 30.3174 40.9023C30.2236 40.6914 30.1299 40.4805 30.0361 40.2695L26.7666 39.4609C25.6416 39.2031 25.0791 38.5 25.0791 37.3516V34.5039C25.0791 33.4727 25.6416 32.8164 26.7666 32.5352L30.0361 31.7266C30.1064 31.4688 30.1885 31.2344 30.2822 31.0234C30.3994 30.7891 30.5049 30.5664 30.5986 30.3555L28.7354 27.3672C28.4775 26.9453 28.3955 26.5 28.4893 26.0312C28.583 25.5625 28.8057 25.1523 29.1572 24.8008L31.0908 22.7969C31.4658 22.4453 31.8877 22.2344 32.3564 22.1641C32.8252 22.0938 33.2588 22.1875 33.6572 22.4453L36.5752 24.2734C36.8096 24.1094 37.0557 23.9922 37.3135 23.9219C37.5713 23.8516 37.8408 23.7578 38.1221 23.6406L38.8604 20.3711C38.9541 19.8789 39.2002 19.4805 39.5986 19.1758C39.9971 18.8477 40.4424 18.6836 40.9346 18.6836H43.7822C44.9072 18.6836 45.5986 19.2461 45.8564 20.3711L46.6299 23.6758C46.8643 23.7695 47.0986 23.8516 47.333 23.9219C47.5908 23.9922 47.8604 24.1094 48.1416 24.2734L51.0596 22.4453C51.4814 22.1641 51.915 22.0703 52.3604 22.1641C52.8291 22.2344 53.251 22.4453 53.626 22.7969L55.665 24.8008C56.0166 25.1289 56.2158 25.5391 56.2627 26.0312C56.3096 26.5 56.2041 26.9453 55.9463 27.3672L54.1533 30.3555C54.2236 30.5664 54.3057 30.7773 54.3994 30.9883C54.5166 31.1992 54.6338 31.4453 54.751 31.7266L57.9502 32.5352C59.0986 32.8398 59.6729 33.4961 59.6729 34.5039V37.3516C59.6729 38.5 59.0986 39.2031 57.9502 39.4609L54.6807 40.2695C54.6104 40.4805 54.5283 40.6914 54.4346 40.9023C54.3408 41.1133 54.2354 41.3359 54.1182 41.5703L55.8057 44.4883C56.1104 44.957 56.2393 45.4258 56.1924 45.8945C56.1455 46.3633 55.9463 46.7852 55.5947 47.1602L53.626 49.1289C52.8525 49.9258 51.9736 50.0195 50.9893 49.4102L48.1416 47.6523C47.626 47.9102 47.1221 48.1094 46.6299 48.25L45.8564 51.5195C45.6221 52.6445 44.9307 53.207 43.7822 53.207H40.9346ZM42.376 41.5C43.876 41.5 45.1768 40.9609 46.2783 39.8828C47.3799 38.8047 47.9307 37.5039 47.9307 35.9805C47.9307 34.457 47.3799 33.1328 46.2783 32.0078C45.1768 30.8828 43.876 30.332 42.376 30.3555C40.8057 30.3789 39.4814 30.9414 38.4033 32.043C37.3486 33.1445 36.8213 34.457 36.8213 35.9805C36.8213 37.5039 37.3486 38.8047 38.4033 39.8828C39.4814 40.9609 40.8057 41.5 42.376 41.5ZM0.610352 35.9453L8.27441 25.0469C8.7666 24.3438 9.31738 24.0039 9.92676 24.0273C10.5596 24.0273 11.1104 24.3672 11.5791 25.0469L19.2432 35.9805C19.8291 36.8008 19.9814 37.5156 19.7002 38.125C19.4424 38.7109 18.8096 39.0039 17.8018 39.0039H11.8955C12.2471 42.8945 13.2783 46.5156 14.9893 49.8672C16.7002 53.2188 18.9268 56.1602 21.6689 58.6914C24.4346 61.2227 27.5752 63.1914 31.0908 64.5977C34.6299 66.0039 38.3916 66.707 42.376 66.707C47.1572 66.707 51.5869 65.7109 55.665 63.7188C59.7666 61.7266 63.2236 59.043 66.0361 55.668C66.458 55.1758 66.9619 54.8711 67.5479 54.7539C68.1338 54.6367 68.6846 54.7773 69.2002 55.1758C69.7158 55.5508 69.9971 56.0547 70.0439 56.6875C70.0908 57.3203 69.8799 57.918 69.4111 58.4805C66.1533 62.3477 62.1807 65.4414 57.4932 67.7617C52.8291 70.082 47.79 71.2422 42.376 71.2422C37.8057 71.2422 33.4932 70.4102 29.4385 68.7461C25.3838 67.082 21.7627 64.7734 18.5752 61.8203C15.3877 58.8906 12.8096 55.4805 10.8408 51.5898C8.87207 47.6758 7.68848 43.4805 7.29004 39.0039H2.05176C1.02051 39.0039 0.375977 38.6992 0.118164 38.0898C-0.139648 37.4805 0.0244141 36.7656 0.610352 35.9453ZM15.4111 13.4805C18.6455 9.58984 22.5947 6.49609 27.2588 4.19922C31.9463 1.87891 36.9854 0.71875 42.376 0.71875C46.9463 0.71875 51.2588 1.55078 55.3135 3.21484C59.3916 4.87891 63.0244 7.1875 66.2119 10.1406C69.3994 13.0703 71.9775 16.4922 73.9463 20.4062C75.915 24.2969 77.0986 28.4805 77.4971 32.957H82.7002C83.7314 32.957 84.376 33.2617 84.6338 33.8711C84.915 34.4805 84.751 35.1953 84.1416 36.0156L76.5127 46.9492C76.0205 47.6289 75.458 47.9688 74.8252 47.9688C74.2158 47.9453 73.6768 47.6055 73.208 46.9492L65.5439 35.9805C64.958 35.1836 64.7939 34.4805 65.0518 33.8711C65.333 33.2617 65.9775 32.957 66.9854 32.957H72.9268C72.5283 29.0664 71.4736 25.4453 69.7627 22.0938C68.0518 18.7422 65.8252 15.8125 63.083 13.3047C60.3408 10.7734 57.2002 8.80469 53.6611 7.39844C50.1455 5.96875 46.3838 5.25391 42.376 5.25391C37.6416 5.25391 33.2236 6.25 29.1221 8.24219C25.0439 10.2344 21.5986 12.918 18.7861 16.293C18.3643 16.7852 17.8604 17.0898 17.2744 17.207C16.6885 17.3008 16.1377 17.1602 15.6221 16.7852C15.083 16.3867 14.79 15.8828 14.7432 15.2734C14.6963 14.6406 14.9189 14.043 15.4111 13.4805Z" fill="currentColor"/>
</svg>
