<svg viewBox="0 0 14 19" fill="none" xmlns="http://www.w3.org/2000/svg">
<path d="M2.83203 18.3838C2.16406 18.3838 1.65723 18.2021 1.31152 17.8389C0.96582 17.4814 0.792969 16.9424 0.792969 16.2217V9.99023C0.792969 9.27539 0.96582 8.73926 1.31152 8.38184C1.65723 8.02441 2.16406 7.8457 2.83203 7.8457H11.0586C11.7266 7.8457 12.2334 8.02441 12.5791 8.38184C12.9248 8.73926 13.0977 9.27539 13.0977 9.99023V16.2217C13.0977 16.9424 12.9248 17.4814 12.5791 17.8389C12.2334 18.2021 11.7266 18.3838 11.0586 18.3838H2.83203ZM2.40137 8.58398V5.78906C2.40137 4.70508 2.6123 3.7998 3.03418 3.07324C3.46191 2.34082 4.02148 1.79004 4.71289 1.4209C5.4043 1.05176 6.14844 0.867188 6.94531 0.867188C7.74219 0.867188 8.48633 1.05176 9.17773 1.4209C9.86914 1.79004 10.4258 2.34082 10.8477 3.07324C11.2754 3.7998 11.4893 4.70508 11.4893 5.78906V8.58398H9.8457V5.62207C9.8457 4.93652 9.71094 4.35938 9.44141 3.89062C9.17773 3.41602 8.82617 3.05566 8.38672 2.80957C7.94727 2.56348 7.4668 2.44043 6.94531 2.44043C6.42383 2.44043 5.94336 2.56348 5.50391 2.80957C5.06445 3.05566 4.71289 3.41602 4.44922 3.89062C4.18555 4.35938 4.05371 4.93652 4.05371 5.62207V8.58398H2.40137Z" fill="currentColor"/>
</svg>
