<svg viewBox="0 0 16 20" fill="none" xmlns="http://www.w3.org/2000/svg">
<path d="M3.30469 19.3682C2.36133 19.3682 1.64941 19.1221 1.16895 18.6299C0.688477 18.1436 0.448242 17.4287 0.448242 16.4854V3.22266C0.448242 2.27344 0.688477 1.55566 1.16895 1.06934C1.64941 0.583008 2.36133 0.339844 3.30469 0.339844H5.45801C5.62793 0.339844 5.7627 0.395508 5.8623 0.506836C5.96191 0.618164 6.01172 0.758789 6.01172 0.928711C6.01172 0.946289 6.01172 0.969727 6.01172 0.999023C6.01172 1.02246 6.01172 1.0459 6.01172 1.06934C6.01172 1.64355 6.19043 2.09473 6.54785 2.42285C6.91113 2.75098 7.3916 2.91504 7.98926 2.91504C8.58691 2.91504 9.06445 2.75098 9.42188 2.42285C9.7793 2.09473 9.95801 1.64355 9.95801 1.06934C9.95801 1.0459 9.95801 1.02246 9.95801 0.999023C9.95801 0.969727 9.95801 0.946289 9.95801 0.928711C9.95801 0.758789 10.0078 0.618164 10.1074 0.506836C10.207 0.395508 10.3447 0.339844 10.5205 0.339844H12.665C13.6084 0.339844 14.3203 0.583008 14.8008 1.06934C15.2812 1.55566 15.5215 2.27344 15.5215 3.22266V16.4854C15.5215 17.4287 15.2812 18.1436 14.8008 18.6299C14.3203 19.1221 13.6084 19.3682 12.665 19.3682H3.30469ZM4.74609 7.08105H11.2324C11.3906 7.08105 11.5225 7.02539 11.6279 6.91406C11.7334 6.80273 11.7861 6.66504 11.7861 6.50098C11.7861 6.34277 11.7334 6.21094 11.6279 6.10547C11.5225 6 11.3906 5.94727 11.2324 5.94727H4.74609C4.58203 5.94727 4.44727 6 4.3418 6.10547C4.23633 6.21094 4.18359 6.34277 4.18359 6.50098C4.18359 6.66504 4.23633 6.80273 4.3418 6.91406C4.44727 7.02539 4.58203 7.08105 4.74609 7.08105ZM4.74609 10.1836H7.88379C8.04785 10.1836 8.18262 10.1309 8.28809 10.0254C8.39355 9.91992 8.44629 9.78809 8.44629 9.62988C8.44629 9.47168 8.39355 9.33691 8.28809 9.22559C8.18262 9.11426 8.04785 9.05859 7.88379 9.05859H4.74609C4.58203 9.05859 4.44727 9.11426 4.3418 9.22559C4.23633 9.33691 4.18359 9.47168 4.18359 9.62988C4.18359 9.78809 4.23633 9.91992 4.3418 10.0254C4.44727 10.1309 4.58203 10.1836 4.74609 10.1836Z" fill="currentColor"/>
</svg>
