<svg viewBox="0 0 19 20" fill="none" xmlns="http://www.w3.org/2000/svg">
<path d="M11.4453 19.4014C11.0234 19.4014 10.7129 19.252 10.5137 18.9531C10.3145 18.6602 10.1475 18.2881 10.0127 17.8369L8.65918 13.3721C8.57129 13.0615 8.53906 12.8008 8.5625 12.5898C8.5918 12.3789 8.7002 12.1738 8.8877 11.9746L17.9229 2.16602C17.9814 2.10742 18.0107 2.0459 18.0107 1.98145C18.0107 1.91113 17.9873 1.85254 17.9404 1.80566C17.8877 1.75879 17.8262 1.73535 17.7559 1.73535C17.6914 1.73535 17.6299 1.76172 17.5713 1.81445L7.78906 10.8848C7.57227 11.084 7.36133 11.1953 7.15625 11.2188C6.95117 11.2363 6.69629 11.1982 6.3916 11.1045L1.83008 9.70703C1.40234 9.57812 1.04785 9.41699 0.766602 9.22363C0.485352 9.02441 0.344727 8.7168 0.344727 8.30078C0.344727 7.96094 0.470703 7.6709 0.722656 7.43066C0.980469 7.19043 1.2998 6.99707 1.68066 6.85059L16.8945 1.02344C17.0938 0.953125 17.2812 0.897461 17.457 0.856445C17.6328 0.80957 17.7939 0.786133 17.9404 0.786133C18.251 0.786133 18.4971 0.879883 18.6787 1.06738C18.8604 1.24902 18.9512 1.49512 18.9512 1.80566C18.9512 1.95801 18.9307 2.11914 18.8896 2.28906C18.8486 2.45898 18.79 2.64355 18.7139 2.84277L12.9219 18.0039C12.7578 18.4258 12.5557 18.7627 12.3154 19.0146C12.0752 19.2725 11.7852 19.4014 11.4453 19.4014Z" fill="currentColor"/>
</svg>
