<svg viewBox="0 0 26 26" fill="none" xmlns="http://www.w3.org/2000/svg">
<path d="M11.5312 25.1953C11.1562 25.1953 10.832 25.0898 10.5586 24.8789C10.293 24.668 10.1172 24.375 10.0312 24L9.45703 21.5742C9.27734 21.5117 9.09766 21.4453 8.91797 21.375C8.74609 21.3047 8.58203 21.2344 8.42578 21.1641L6.31641 22.4648C6.00391 22.6602 5.67578 22.7422 5.33203 22.7109C4.98828 22.6797 4.68359 22.5312 4.41797 22.2656L2.91797 20.7773C2.66016 20.5117 2.51172 20.2031 2.47266 19.8516C2.44141 19.4922 2.53125 19.1562 2.74219 18.8438L4.01953 16.7461C3.94922 16.582 3.87891 16.418 3.80859 16.2539C3.74609 16.0898 3.6875 15.9219 3.63281 15.75L1.19531 15.1758C0.820312 15.0977 0.527344 14.9258 0.316406 14.6602C0.105469 14.3867 0 14.0586 0 13.6758V11.5781C0 11.2109 0.105469 10.8945 0.316406 10.6289C0.527344 10.3555 0.820312 10.1758 1.19531 10.0898L3.60938 9.51562C3.66406 9.32031 3.72656 9.14062 3.79688 8.97656C3.875 8.8125 3.94531 8.65625 4.00781 8.50781L2.71875 6.36328C2.50781 6.04297 2.41797 5.71094 2.44922 5.36719C2.48047 5.02344 2.63281 4.72266 2.90625 4.46484L4.41797 2.96484C4.69141 2.71484 4.98828 2.57031 5.30859 2.53125C5.62891 2.49219 5.94922 2.55859 6.26953 2.73047L8.41406 4.06641C8.57031 3.98828 8.73828 3.91406 8.91797 3.84375C9.09766 3.76562 9.27734 3.69531 9.45703 3.63281L10.0312 1.19531C10.1172 0.828125 10.293 0.539062 10.5586 0.328125C10.832 0.109375 11.1562 0 11.5312 0H13.6758C14.0508 0 14.3711 0.109375 14.6367 0.328125C14.9102 0.539062 15.0859 0.828125 15.1641 1.19531L15.75 3.65625C15.9375 3.71875 16.1172 3.78516 16.2891 3.85547C16.4609 3.92578 16.6211 4 16.7695 4.07812L18.9492 2.73047C19.2617 2.55859 19.5781 2.49609 19.8984 2.54297C20.2188 2.58203 20.5117 2.71875 20.7773 2.95312L22.3008 4.46484C22.5742 4.72266 22.7227 5.02344 22.7461 5.36719C22.7773 5.71094 22.6953 6.04297 22.5 6.36328L21.1992 8.50781C21.2617 8.65625 21.3281 8.8125 21.3984 8.97656C21.4688 9.14062 21.5352 9.32031 21.5977 9.51562L24.0234 10.0898C24.3906 10.1758 24.6797 10.3555 24.8906 10.6289C25.1016 10.8945 25.207 11.2109 25.207 11.5781V13.6758C25.207 14.0586 25.1016 14.3867 24.8906 14.6602C24.6797 14.9258 24.3906 15.0977 24.0234 15.1758L21.5742 15.75C21.5195 15.9219 21.457 16.0898 21.3867 16.2539C21.3242 16.418 21.2539 16.582 21.1758 16.7461L22.4648 18.8438C22.6758 19.1562 22.7656 19.4922 22.7344 19.8516C22.7031 20.2031 22.5547 20.5117 22.2891 20.7773L20.7891 22.2656C20.5234 22.5312 20.2188 22.6797 19.875 22.7109C19.5312 22.7422 19.2031 22.6602 18.8906 22.4648L16.7695 21.1641C16.6133 21.2344 16.4492 21.3047 16.2773 21.375C16.1055 21.4453 15.9297 21.5117 15.75 21.5742L15.1641 24C15.0859 24.375 14.9102 24.668 14.6367 24.8789C14.3711 25.0898 14.0508 25.1953 13.6758 25.1953H11.5312ZM12.6094 16.6758C13.3516 16.6758 14.0312 16.4922 14.6484 16.125C15.2656 15.7578 15.7578 15.2656 16.125 14.6484C16.4922 14.0234 16.6758 13.3359 16.6758 12.5859C16.6758 11.8438 16.4922 11.168 16.125 10.5586C15.7578 9.94141 15.2656 9.44922 14.6484 9.08203C14.0312 8.71484 13.3516 8.53125 12.6094 8.53125C11.8594 8.53125 11.1758 8.71484 10.5586 9.08203C9.94922 9.44922 9.45703 9.94141 9.08203 10.5586C8.71484 11.168 8.53125 11.8438 8.53125 12.5859C8.53125 13.3359 8.71484 14.0234 9.08203 14.6484C9.44922 15.2656 9.94141 15.7578 10.5586 16.125C11.1758 16.4922 11.8594 16.6758 12.6094 16.6758Z" fill="currentColor"/>
</svg>
