<svg viewBox="0 0 24 16" fill="none" xmlns="http://www.w3.org/2000/svg">
<path d="M18.125 15.6504H5.97852C5.21094 15.6504 4.49902 15.5186 3.84277 15.2549C3.19238 14.9971 2.62109 14.6455 2.12891 14.2002C1.63672 13.749 1.25293 13.2275 0.977539 12.6357C0.708008 12.0439 0.573242 11.4141 0.573242 10.7461C0.573242 10.0137 0.705078 9.33984 0.96875 8.72461C1.23242 8.10352 1.60742 7.58789 2.09375 7.17773C2.58008 6.76758 3.15723 6.50391 3.8252 6.38672C3.84863 5.77148 3.99805 5.21484 4.27344 4.7168C4.54883 4.21289 4.90625 3.79688 5.3457 3.46875C5.79102 3.13477 6.28613 2.91211 6.83105 2.80078C7.37598 2.68359 7.92383 2.70117 8.47461 2.85352C8.84375 2.32031 9.2832 1.84277 9.79297 1.4209C10.3027 0.999023 10.8799 0.665039 11.5244 0.418945C12.1748 0.172852 12.8926 0.0498047 13.6777 0.0498047C14.5977 0.0498047 15.4531 0.216797 16.2441 0.550781C17.0352 0.884766 17.7266 1.35938 18.3184 1.97461C18.916 2.58984 19.3789 3.31348 19.707 4.14551C20.041 4.97754 20.208 5.8916 20.208 6.8877C20.7881 7.12793 21.2891 7.46191 21.7109 7.88965C22.1328 8.31738 22.4551 8.80957 22.6777 9.36621C22.9004 9.92285 23.0117 10.5117 23.0117 11.1328C23.0117 11.7598 22.8857 12.3457 22.6338 12.8906C22.3877 13.4355 22.042 13.916 21.5967 14.332C21.1514 14.7422 20.6299 15.0645 20.0322 15.2988C19.4404 15.5332 18.8047 15.6504 18.125 15.6504ZM16.7188 8.87402C16.7188 8.38184 16.5986 7.93066 16.3584 7.52051C16.1182 7.11035 15.7959 6.78516 15.3916 6.54492C14.9873 6.30469 14.5361 6.18457 14.0381 6.18457C13.4814 6.18457 12.9746 6.33691 12.5176 6.6416C12.0605 6.94629 11.7324 7.35645 11.5332 7.87207H7.50781C7.39062 7.87207 7.28809 7.91602 7.2002 8.00391L6.50586 8.70703C6.45898 8.75391 6.43555 8.8125 6.43555 8.88281C6.43555 8.95312 6.46191 9.01758 6.51465 9.07617L7.80664 10.377C7.86523 10.4355 7.92969 10.4648 8 10.4648C8.07617 10.4648 8.14355 10.4326 8.20215 10.3682L8.95801 9.6123L10.0215 10.6758C10.0684 10.7344 10.127 10.7637 10.1973 10.7637C10.2734 10.7578 10.3438 10.7256 10.4082 10.667L11.4453 9.63867C11.7031 10.2598 12.0576 10.7373 12.5088 11.0713C12.9658 11.3994 13.4756 11.5635 14.0381 11.5635C14.5303 11.5635 14.9785 11.4434 15.3828 11.2031C15.793 10.9629 16.1182 10.6406 16.3584 10.2363C16.5986 9.82617 16.7188 9.37207 16.7188 8.87402ZM15.4092 8.87402C15.4092 9.09668 15.3271 9.28711 15.1631 9.44531C15.0049 9.60352 14.8174 9.68262 14.6006 9.68262C14.3662 9.68262 14.1699 9.60352 14.0117 9.44531C13.8535 9.28711 13.7744 9.09668 13.7744 8.87402C13.7744 8.64551 13.8535 8.45215 14.0117 8.29395C14.1699 8.13574 14.3662 8.05664 14.6006 8.05664C14.8174 8.05664 15.0049 8.13574 15.1631 8.29395C15.3271 8.45215 15.4092 8.64551 15.4092 8.87402Z" fill="currentColor"/>
</svg>
