<svg viewBox="0 0 17 21" fill="none" xmlns="http://www.w3.org/2000/svg">
<path d="M3.64746 20.6982C2.69824 20.6982 1.98047 20.458 1.49414 19.9775C1.00781 19.4971 0.764648 18.7852 0.764648 17.8418V9.41309C0.764648 8.47559 1.00781 7.7666 1.49414 7.28613C1.98047 6.7998 2.69824 6.55664 3.64746 6.55664H7.69922V12.9551C7.69922 13.2305 7.79883 13.4648 7.99805 13.6582C8.19727 13.8516 8.43457 13.9482 8.70996 13.9482C8.99121 13.9482 9.23145 13.8516 9.43066 13.6582C9.63574 13.4648 9.73828 13.2305 9.73828 12.9551V6.55664H13.7725C14.7217 6.55664 15.4395 6.7998 15.9258 7.28613C16.4121 7.77246 16.6553 8.48145 16.6553 9.41309V17.8418C16.6553 18.7793 16.4121 19.4883 15.9258 19.9688C15.4395 20.4551 14.7217 20.6982 13.7725 20.6982H3.64746ZM8.70996 7.46191C8.4873 7.46191 8.29688 7.38281 8.13867 7.22461C7.98047 7.06641 7.90137 6.87891 7.90137 6.66211V4.04297L7.97168 2.7334L7.41797 3.375L6.1875 4.69336C6.04688 4.85156 5.86523 4.93066 5.64258 4.93066C5.4375 4.93066 5.26465 4.86621 5.12402 4.7373C4.98926 4.60254 4.92188 4.43262 4.92188 4.22754C4.92188 4.04004 4.99512 3.86719 5.1416 3.70898L8.09473 0.870117C8.20605 0.764648 8.30859 0.691406 8.40234 0.650391C8.50195 0.609375 8.60449 0.588867 8.70996 0.588867C8.82129 0.588867 8.92676 0.609375 9.02637 0.650391C9.12598 0.691406 9.22852 0.764648 9.33398 0.870117L12.2783 3.70898C12.4365 3.86719 12.5156 4.04004 12.5156 4.22754C12.5156 4.43262 12.4424 4.60254 12.2959 4.7373C12.1553 4.86621 11.9854 4.93066 11.7861 4.93066C11.5693 4.93066 11.3877 4.85156 11.2412 4.69336L10.0107 3.375L9.46582 2.7334L9.53613 4.04297V6.66211C9.53613 6.87891 9.4541 7.06641 9.29004 7.22461C9.13184 7.38281 8.93848 7.46191 8.70996 7.46191Z" fill="currentColor"/>
</svg>
