<svg viewBox="0 0 21 20" fill="none" xmlns="http://www.w3.org/2000/svg">
<path d="M4.11317 18.9863C3.90809 18.834 3.78211 18.6289 3.73524 18.3711C3.69422 18.1191 3.73231 17.8203 3.84949 17.4746L5.66004 12.1045L1.04578 8.79102C0.746955 8.58008 0.538948 8.36035 0.42176 8.13184C0.304573 7.89746 0.286994 7.65723 0.369026 7.41113C0.451057 7.1709 0.60633 6.99219 0.834846 6.875C1.06336 6.75195 1.36219 6.69336 1.73133 6.69922L7.3827 6.73438L9.10535 1.33789C9.21668 0.986328 9.36317 0.719727 9.54481 0.538086C9.73231 0.350586 9.95203 0.256836 10.204 0.256836C10.4618 0.256836 10.6815 0.350586 10.8632 0.538086C11.0507 0.719727 11.2001 0.986328 11.3114 1.33789L13.0341 6.73438L18.6854 6.69922C19.0546 6.69336 19.3534 6.75195 19.5819 6.875C19.8104 6.99219 19.9657 7.1709 20.0477 7.41113C20.1298 7.65723 20.1122 7.89746 19.995 8.13184C19.8778 8.36035 19.6698 8.58008 19.371 8.79102L14.7567 12.1045L16.5673 17.4746C16.6845 17.8203 16.7196 18.1191 16.6727 18.3711C16.6317 18.6289 16.5087 18.834 16.3036 18.9863C16.0985 19.1504 15.8671 19.209 15.6093 19.1621C15.3514 19.1152 15.0761 18.9863 14.7831 18.7754L10.204 15.4092L5.63367 18.7754C5.34071 18.9863 5.06531 19.1152 4.8075 19.1621C4.54969 19.209 4.31824 19.1504 4.11317 18.9863Z" fill="currentColor"/>
</svg>
