<svg viewBox="0 0 29 29" fill="none" xmlns="http://www.w3.org/2000/svg">
<path fill-rule="evenodd" clip-rule="evenodd" d="M14.0144 28.2422C21.7464 28.2422 28.0144 21.9742 28.0144 14.2422C28.0144 6.5102 21.7464 0.242188 14.0144 0.242188C6.28242 0.242188 0.0144043 6.5102 0.0144043 14.2422C0.0144043 21.9742 6.28242 28.2422 14.0144 28.2422ZM19.6436 7.32418C20.3598 7.00974 21.1257 7.64551 21.001 8.45098L19.1562 20.3683C19.0441 21.0928 18.2729 21.4704 17.6734 21.0945L12.3284 17.7427C11.7713 17.3933 11.6794 16.5843 12.1425 16.1068L16.9165 11.1848C17.0874 11.0086 16.8694 10.7243 16.6694 10.8625L10.0372 15.4445C9.54693 15.7832 8.93899 15.8757 8.37755 15.6969L5.43587 14.7601C4.9032 14.5904 4.86563 13.8125 5.37922 13.587L19.6436 7.32418Z" fill="currentColor"/>
</svg>
