<svg width="71" height="65" viewBox="0 0 71 65" fill="none" xmlns="http://www.w3.org/2000/svg">
<path d="M9.76758 64.043C7.88607 64.043 6.27018 63.6445 4.91992 62.8477C3.56966 62.0508 2.5293 60.9661 1.79883 59.5938C1.06836 58.2435 0.703125 56.7272 0.703125 55.0449C0.703125 53.429 1.13477 51.8796 1.99805 50.3965L27.7637 5.50586C28.6048 4.00065 29.7227 2.87174 31.1172 2.11914C32.5117 1.3444 33.9727 0.957031 35.5 0.957031C37.0273 0.957031 38.4772 1.3444 39.8496 2.11914C41.2441 2.87174 42.373 4.00065 43.2363 5.50586L69.002 50.3965C69.4225 51.127 69.7435 51.8906 69.9648 52.6875C70.1862 53.4844 70.2969 54.2702 70.2969 55.0449C70.2969 56.7272 69.9316 58.2435 69.2012 59.5938C68.4707 60.9661 67.4303 62.0508 66.0801 62.8477C64.7298 63.6445 63.1139 64.043 61.2324 64.043H9.76758ZM35.5332 41.8301C37.2598 41.8301 38.1341 40.9225 38.1562 39.1074L38.6543 21.0449C38.6764 20.1816 38.3776 19.4622 37.7578 18.8867C37.1602 18.2891 36.4076 17.9902 35.5 17.9902C34.5703 17.9902 33.8066 18.278 33.209 18.8535C32.6335 19.429 32.3568 20.1484 32.3789 21.0117L32.8105 39.1074C32.8548 40.9225 33.7624 41.8301 35.5332 41.8301ZM35.5332 52.9531C36.5293 52.9531 37.3926 52.61 38.123 51.9238C38.8757 51.2376 39.252 50.3965 39.252 49.4004C39.252 48.4043 38.8757 47.5632 38.123 46.877C37.3926 46.1686 36.5293 45.8145 35.5332 45.8145C34.515 45.8145 33.6406 46.1686 32.9102 46.877C32.1797 47.5853 31.8145 48.4264 31.8145 49.4004C31.8145 50.3965 32.1797 51.2376 32.9102 51.9238C33.6628 52.61 34.5371 52.9531 35.5332 52.9531Z" fill="currentColor"/>
</svg>
