<svg viewBox="0 0 31 31" fill="none" xmlns="http://www.w3.org/2000/svg">
<path d="M15 29.066C13.9835 29.066 13.0252 28.7175 12.1249 28.0205C11.2246 27.3332 10.4356 26.3651 9.75799 25.1163C9.08035 23.8676 8.54792 22.4058 8.1607 20.7311C7.77347 19.0563 7.57986 17.2364 7.57986 15.2712C7.57986 13.3061 7.77347 11.4813 8.1607 9.79688C8.54792 8.11247 9.08035 6.64587 9.75799 5.39708C10.4356 4.14829 11.2197 3.18023 12.1104 2.49291C13.0106 1.79591 13.9739 1.44742 15 1.44742C16.0358 1.44742 16.999 1.79591 17.8896 2.49291C18.7899 3.18023 19.5789 4.14829 20.2565 5.39708C20.9439 6.64587 21.4763 8.11247 21.8538 9.79688C22.2314 11.4813 22.4201 13.3061 22.4201 15.2712C22.4201 17.2364 22.2265 19.0563 21.8393 20.7311C21.4618 22.4058 20.9293 23.8676 20.242 25.1163C19.5644 26.3651 18.7754 27.3332 17.8751 28.0205C16.9845 28.7175 16.0261 29.066 15 29.066ZM15 3.33512C14.303 3.33512 13.6302 3.65458 12.9816 4.29349C12.3427 4.93241 11.7715 5.8085 11.2682 6.92176C10.7744 8.02534 10.3824 9.29833 10.092 10.7407C9.80155 12.1735 9.65634 13.6836 9.65634 15.2712C9.65634 16.8492 9.80155 18.3496 10.092 19.7727C10.3824 21.1957 10.7744 22.4639 11.2682 23.5771C11.7715 24.6807 12.3427 25.552 12.9816 26.1909C13.6302 26.8395 14.303 27.1638 15 27.1638C15.697 27.1638 16.365 26.8395 17.0039 26.1909C17.6525 25.552 18.2285 24.6759 18.7318 23.5626C19.2352 22.4494 19.6321 21.1812 19.9226 19.7582C20.213 18.3351 20.3582 16.8395 20.3582 15.2712C20.3582 13.6836 20.213 12.1735 19.9226 10.7407C19.6321 9.29833 19.2352 8.02534 18.7318 6.92176C18.2285 5.8085 17.6525 4.93241 17.0039 4.29349C16.365 3.65458 15.697 3.33512 15 3.33512ZM13.9981 1.63619H16.031V28.7901H13.9981V1.63619ZM15 20.339C16.5198 20.339 17.9574 20.4648 19.3127 20.7165C20.668 20.9585 21.8829 21.307 22.9574 21.762C24.0416 22.217 24.9177 22.7543 25.5857 23.3738L24.0319 24.6517C23.4027 24.1676 22.6331 23.7562 21.7231 23.4174C20.8228 23.0689 19.8064 22.8075 18.6738 22.6333C17.5411 22.4494 16.3166 22.3574 15 22.3574C13.6931 22.3574 12.4685 22.4494 11.3262 22.6333C10.1936 22.8075 9.17231 23.0689 8.26234 23.4174C7.36205 23.7562 6.60213 24.1676 5.98257 24.6517L4.42885 23.3738C5.09681 22.7543 5.96805 22.217 7.04259 21.762C8.11713 21.307 9.33204 20.9585 10.6873 20.7165C12.0523 20.4648 13.4898 20.339 15 20.339ZM28.3156 14.2257V16.2441H1.69894V14.2257H28.3156ZM15 10.218C13.4898 10.218 12.0523 10.097 10.6873 9.85497C9.33204 9.60327 8.11713 9.24993 7.04259 8.79495C5.96805 8.33996 5.09681 7.80269 4.42885 7.18314L5.98257 5.9053C6.61181 6.38933 7.37657 6.8056 8.27686 7.15409C9.17715 7.49291 10.1936 7.75429 11.3262 7.93822C12.4685 8.11247 13.6931 8.19959 15 8.19959C16.3166 8.19959 17.5411 8.11247 18.6738 7.93822C19.8064 7.75429 20.8228 7.49291 21.7231 7.15409C22.6331 6.8056 23.4027 6.38933 24.0319 5.9053L25.5857 7.18314C24.9177 7.80269 24.0416 8.33996 22.9574 8.79495C21.8829 9.24993 20.668 9.60327 19.3127 9.85497C17.9574 10.097 16.5198 10.218 15 10.218ZM15 30.2422C12.9477 30.2422 11.0165 29.8501 9.2062 29.066C7.39593 28.2916 5.79864 27.2122 4.41433 25.8279C3.03969 24.4435 1.96031 22.8463 1.17619 21.036C0.392062 19.2257 0 17.2945 0 15.2422C0 13.1899 0.392062 11.2586 1.17619 9.44838C1.96031 7.63812 3.03969 6.04567 4.41433 4.67104C5.79864 3.28672 7.39109 2.2025 9.19167 1.41837C11.0019 0.634249 12.9332 0.242188 14.9855 0.242188C17.0474 0.242188 18.9835 0.634249 20.7938 1.41837C22.6041 2.2025 24.2014 3.28672 25.5857 4.67104C26.97 6.04567 28.0542 7.63812 28.8383 9.44838C29.6225 11.2586 30.0145 13.1899 30.0145 15.2422C30.0145 17.2945 29.6225 19.2257 28.8383 21.036C28.0542 22.8463 26.97 24.4435 25.5857 25.8279C24.2014 27.2122 22.6041 28.2916 20.7938 29.066C18.9835 29.8501 17.0523 30.2422 15 30.2422ZM15 27.9189C16.7328 27.9189 18.364 27.5849 19.8935 26.9169C21.423 26.2586 22.7686 25.3487 23.9303 24.187C25.1016 23.0157 26.0165 21.6652 26.6747 20.1357C27.3427 18.6062 27.6767 16.975 27.6767 15.2422C27.6767 13.5094 27.3427 11.8782 26.6747 10.3487C26.0165 8.81915 25.1016 7.47355 23.9303 6.31189C22.759 5.15022 21.4085 4.24025 19.879 3.58197C18.3495 2.91402 16.7183 2.58004 14.9855 2.58004C13.2623 2.58004 11.636 2.91402 10.1065 3.58197C8.57696 4.24025 7.23136 5.15022 6.0697 6.31189C4.90803 7.47355 3.99322 8.81915 3.32527 10.3487C2.66699 11.8782 2.33785 13.5094 2.33785 15.2422C2.33785 16.975 2.66699 18.6062 3.32527 20.1357C3.99322 21.6652 4.90803 23.0157 6.0697 24.187C7.23136 25.3487 8.57696 26.2586 10.1065 26.9169C11.636 27.5849 13.2672 27.9189 15 27.9189Z" fill="currentColor"/>
</svg>
